<svg xmlns="http://www.w3.org/2000/svg" xmlns:xlink="http://www.w3.org/1999/xlink" width="387" height="434.144" viewBox="0 0 387 434.144">
  <defs>
    <filter id="Ellipse_216" x="0" y="391.144" width="387" height="43" filterUnits="userSpaceOnUse">
      <feOffset dy="3" input="SourceAlpha"/>
      <feGaussianBlur stdDeviation="3" result="blur"/>
      <feFlood flood-color="#f7a823"/>
      <feComposite operator="in" in2="blur"/>
      <feComposite in="SourceGraphic"/>
    </filter>
  </defs>
  <g id="Group_8470" data-name="Group 8470" transform="translate(-188 -140.856)">
    <g transform="matrix(1, 0, 0, 1, 188, 140.86)" filter="url(#Ellipse_216)">
      <ellipse id="Ellipse_216-2" data-name="Ellipse 216" cx="184.5" cy="12.5" rx="184.5" ry="12.5" transform="translate(9 397.14)" fill="#f7a823" opacity="0.1"/>
    </g>
    <g id="Group_8187" data-name="Group 8187" transform="translate(106.074 -499.702)">
      <g id="Group_8053" data-name="Group 8053" transform="translate(170.05 640.558)">
        <g id="Group_8044" data-name="Group 8044" transform="translate(0 13.441)">
          <path id="Path_1193" data-name="Path 1193" d="M1104.3,731.659a.6.6,0,0,1-.511-.916l34.955-56.839a.6.6,0,0,1,.512-.286h0a.6.6,0,0,1,.512.29l33.434,55.319a.6.6,0,1,1-1.028.621l-32.926-54.476-34.438,56A.6.6,0,0,1,1104.3,731.659Z" transform="translate(-1098.533 -673.618)"/>
          <g id="Group_8042" data-name="Group 8042" transform="translate(5.167 60.183)">
            <path id="Path_1194" data-name="Path 1194" d="M1142.116,929.593h-2.128c-16.115,0-34.043-12.76-34.043-28.875h69.909C1175.855,916.833,1158.232,929.593,1142.116,929.593Z" transform="translate(-1105.345 -900.117)" fill="#fff"/>
            <path id="Path_1195" data-name="Path 1195" d="M1140.472,928.551h-2.128c-16.021,0-34.644-12.876-34.644-29.477a.6.6,0,0,1,.6-.6h69.91a.6.6,0,0,1,.6.6c0,7.733-3.924,15.172-11.049,20.948A37.781,37.781,0,0,1,1140.472,928.551Zm-35.561-28.876c.445,15.632,18.163,27.674,33.433,27.674h2.128a37.077,37.077,0,0,0,22.534-8.261c6.652-5.392,10.4-12.265,10.595-19.413Z" transform="translate(-1103.701 -898.473)"/>
          </g>
          <g id="Group_8043" data-name="Group 8043" transform="translate(0 54.408)">
            <rect id="Rectangle_1627" data-name="Rectangle 1627" width="79.028" height="7.599" rx="3.799" transform="translate(0.601 0.601)" fill="#fff"/>
            <path id="Path_1196" data-name="Path 1196" d="M1161.882,885.7h-74.744a2.746,2.746,0,0,1-2.743-2.743v-3.315a2.746,2.746,0,0,1,2.743-2.743h74.744a2.746,2.746,0,0,1,2.743,2.743v3.315A2.746,2.746,0,0,1,1161.882,885.7Zm-74.744-7.6a1.543,1.543,0,0,0-1.542,1.541v3.315a1.543,1.543,0,0,0,1.542,1.541h74.744a1.543,1.543,0,0,0,1.541-1.541v-3.315a1.542,1.542,0,0,0-1.541-1.541Z" transform="translate(-1084.395 -876.896)"/>
          </g>
        </g>
        <g id="Group_8045" data-name="Group 8045" transform="translate(109.664 0)">
          <path id="Path_1197" data-name="Path 1197" d="M1507.882,889.265h-11.516l3.459-263.619a4.093,4.093,0,0,1,4.279,3.81Z" transform="translate(-1495.765 -625.045)" fill="#fff"/>
          <path id="Path_1198" data-name="Path 1198" d="M1506.237,888.221H1494.72a.6.6,0,0,1-.6-.609l3.459-263.62a.6.6,0,0,1,.6-.593,4.709,4.709,0,0,1,4.879,4.4l3.78,259.809a.6.6,0,0,1-.6.61Zm-10.907-1.2h10.3l-3.77-259.2a3.428,3.428,0,0,0-3.084-3.175Z" transform="translate(-1494.12 -623.4)"/>
        </g>
        <g id="Group_8046" data-name="Group 8046" transform="translate(35.094 11.049)">
          <rect id="Rectangle_1628" data-name="Rectangle 1628" width="4.887" height="150.793" transform="translate(149.627 28.934) rotate(100.83)" fill="#fff"/>
          <path id="Path_1199" data-name="Path 1199" d="M1364.222,699.016a.613.613,0,0,1-.114-.011L1216,670.671a.6.6,0,0,1-.477-.7l.918-4.8a.6.6,0,0,1,.253-.384.608.608,0,0,1,.45-.093l148.108,28.334a.6.6,0,0,1,.477.7l-.918,4.8A.6.6,0,0,1,1364.222,699.016ZM1216.817,669.6l146.927,28.108.693-3.619-146.928-28.108Z" transform="translate(-1215.514 -664.68)"/>
        </g>
        <g id="Group_8047" data-name="Group 8047" transform="translate(34.272 9.218)">
          <circle id="Ellipse_202" data-name="Ellipse 202" cx="5.182" cy="5.182" r="5.182" transform="translate(0.601 0.601)" fill="#fff"/>
          <path id="Path_1200" data-name="Path 1200" d="M1218.225,669.406a5.783,5.783,0,1,1,5.783-5.783A5.79,5.79,0,0,1,1218.225,669.406Zm0-10.365a4.581,4.581,0,1,0,4.581,4.582A4.586,4.586,0,0,0,1218.225,659.042Z" transform="translate(-1212.442 -657.84)"/>
        </g>
        <g id="Group_8048" data-name="Group 8048" transform="translate(103.105 18.258)">
          <circle id="Ellipse_203" data-name="Ellipse 203" cx="10.557" cy="10.557" r="10.557" transform="matrix(0.234, -0.972, 0.972, 0.234, 0, 20.528)" fill="#fff"/>
          <path id="Path_1201" data-name="Path 1201" d="M1486.651,719.808a11.158,11.158,0,1,1,11.158-11.157A11.17,11.17,0,0,1,1486.651,719.808Zm0-21.113a9.956,9.956,0,1,0,9.956,9.956A9.967,9.967,0,0,0,1486.651,698.694Z" transform="translate(-1473.92 -695.919)"/>
        </g>
        <g id="Group_8051" data-name="Group 8051" transform="translate(140.283 41.459)">
          <path id="Path_1202" data-name="Path 1202" d="M1628.421,836.339a.6.6,0,0,1-.511-.915l34.955-56.84a.6.6,0,0,1,.512-.286h0a.6.6,0,0,1,.511.29l33.435,55.32a.6.6,0,1,1-1.028.622l-32.925-54.476-34.439,56A.6.6,0,0,1,1628.421,836.339Z" transform="translate(-1622.654 -778.298)"/>
          <g id="Group_8049" data-name="Group 8049" transform="translate(5.167 60.183)">
            <path id="Path_1203" data-name="Path 1203" d="M1666.238,1034.273h-2.128c-16.115,0-34.043-12.76-34.043-28.876h69.91C1699.976,1021.513,1682.353,1034.273,1666.238,1034.273Z" transform="translate(-1629.466 -1004.797)" fill="#fff"/>
            <path id="Path_1204" data-name="Path 1204" d="M1664.594,1033.23h-2.128c-16.021,0-34.644-12.876-34.644-29.477a.6.6,0,0,1,.6-.6h69.91a.6.6,0,0,1,.6.6c0,7.733-3.924,15.172-11.049,20.948A37.784,37.784,0,0,1,1664.594,1033.23Zm-35.561-28.876c.445,15.632,18.164,27.674,33.433,27.674h2.128a37.078,37.078,0,0,0,22.534-8.26c6.652-5.392,10.4-12.265,10.6-19.413Z" transform="translate(-1627.822 -1003.153)"/>
          </g>
          <g id="Group_8050" data-name="Group 8050" transform="translate(0 54.408)">
            <rect id="Rectangle_1629" data-name="Rectangle 1629" width="79.028" height="7.599" rx="3.799" transform="translate(0.601 0.601)" fill="#fff"/>
            <path id="Path_1205" data-name="Path 1205" d="M1686,990.377H1611.26a2.746,2.746,0,0,1-2.743-2.743v-3.315a2.746,2.746,0,0,1,2.743-2.743H1686a2.746,2.746,0,0,1,2.743,2.743v3.315A2.746,2.746,0,0,1,1686,990.377Zm-74.744-7.6a1.543,1.543,0,0,0-1.541,1.541v3.315a1.543,1.543,0,0,0,1.541,1.541H1686a1.543,1.543,0,0,0,1.541-1.541v-3.315a1.542,1.542,0,0,0-1.541-1.541Z" transform="translate(-1608.516 -981.576)"/>
          </g>
        </g>
        <g id="Group_8052" data-name="Group 8052" transform="translate(176.648 36.503)">
          <circle id="Ellipse_204" data-name="Ellipse 204" cx="5.182" cy="5.182" r="5.182" transform="translate(0.601 0.601)" fill="#fff"/>
          <path id="Path_1206" data-name="Path 1206" d="M1750.166,771.348a5.783,5.783,0,1,1,5.783-5.784A5.79,5.79,0,0,1,1750.166,771.348Zm0-10.365a4.581,4.581,0,1,0,4.581,4.581A4.586,4.586,0,0,0,1750.166,760.983Z" transform="translate(-1744.383 -759.781)"/>
        </g>
      </g>
      <g id="Group_8085" data-name="Group 8085" transform="translate(206.38 777.807)">
        <g id="Group_8057" data-name="Group 8057" transform="translate(59.481 26.175)">
          <g id="Group_8054" data-name="Group 8054">
            <path id="Path_1207" data-name="Path 1207" d="M1535.632,1266.433v26.387c0,25.806-20.376,46.725-45.512,46.725s-45.512,20.92-45.512,46.727a4.162,4.162,0,0,0,4.16,4.163h120.474c37.682,0,68.229-31.362,68.229-70.048v-56.3c0-15.387-12.15-27.861-27.137-27.861h-45.278C1548.806,1236.224,1535.632,1249.749,1535.632,1266.433Z" transform="translate(-1444.007 -1235.624)" fill="#fff"/>
            <path id="Path_1208" data-name="Path 1208" d="M1567.6,1389.392H1447.123a4.768,4.768,0,0,1-4.761-4.765c0-26.1,20.686-47.327,46.113-47.327,24.764,0,44.912-20.691,44.912-46.125v-26.387c0-16.988,13.469-30.809,30.024-30.809h45.278c15.3,0,27.738,12.767,27.738,28.462v56.3C1636.427,1357.7,1605.551,1389.392,1567.6,1389.392Zm-4.186-154.211c-15.893,0-28.823,13.282-28.823,29.608v26.387c0,26.1-20.686,47.327-46.113,47.327-24.764,0-44.911,20.691-44.911,46.125a3.565,3.565,0,0,0,3.559,3.563H1567.6c37.291,0,67.628-31.154,67.628-69.447v-56.3c0-15.031-11.9-27.26-26.536-27.26Z" transform="translate(-1442.363 -1233.98)"/>
          </g>
          <g id="Group_8055" data-name="Group 8055" transform="translate(94.004 106.66)">
            <rect id="Rectangle_1630" data-name="Rectangle 1630" width="10.917" height="127.114" transform="translate(0.601 0.601)" fill="#fff"/>
            <path id="Path_1209" data-name="Path 1209" d="M1805.1,1760.795H1794.18a.6.6,0,0,1-.6-.6V1633.08a.6.6,0,0,1,.6-.6H1805.1a.6.6,0,0,1,.6.6v127.114A.6.6,0,0,1,1805.1,1760.795Zm-10.317-1.2h9.715V1633.681h-9.715Z" transform="translate(-1793.578 -1632.479)"/>
          </g>
          <g id="Group_8056" data-name="Group 8056" transform="translate(48.295 233.656)">
            <path id="Path_1210" data-name="Path 1210" d="M1625.046,2113.449l48.316-4.241h4.43l49.325,4.241v3.366H1625.046Z" transform="translate(-1624.445 -2108.606)" fill="#fff"/>
            <path id="Path_1211" data-name="Path 1211" d="M1725.473,2115.77H1623.4a.6.6,0,0,1-.6-.6V2111.8a.6.6,0,0,1,.548-.6l48.316-4.241,4.483,0,49.377,4.244a.6.6,0,0,1,.55.6v3.365A.6.6,0,0,1,1725.473,2115.77Zm-101.471-1.2h100.87v-2.213l-48.777-4.194h-4.378L1624,2112.356Z" transform="translate(-1622.801 -2106.962)"/>
          </g>
        </g>
        <g id="Group_8080" data-name="Group 8080" transform="translate(26.684 0)">
          <g id="Group_8062" data-name="Group 8062" transform="translate(0 127.703)">
            <g id="Group_8058" data-name="Group 8058" transform="translate(78.968 92.917)">
              <path id="Path_1212" data-name="Path 1212" d="M1637.5,1983.98c-1.12-1.133-7.594-21.272-7.594-21.272l-12.792,9.127,14.024,18.849Z" transform="translate(-1616.511 -1962.107)" fill="#fff"/>
              <path id="Path_1213" data-name="Path 1213" d="M1629.492,1989.641h-.036a.6.6,0,0,1-.447-.241l-14.025-18.849a.6.6,0,0,1,.133-.848l12.793-9.127a.6.6,0,0,1,.921.305c2.456,7.641,6.652,20.109,7.455,21.038a.634.634,0,0,1,0,.831l-6.361,6.7A.6.6,0,0,1,1629.492,1989.641Zm-13.177-19.317,13.233,17.783,5.555-5.854c-1.514-2.885-5.778-15.937-7.163-20.224Z" transform="translate(-1614.866 -1960.462)"/>
            </g>
            <g id="Group_8059" data-name="Group 8059" transform="translate(74.162 105.07)">
              <path id="Path_1214" data-name="Path 1214" d="M1599.65,2041.05l8.508-.05a16.742,16.742,0,0,0,13.933-7.611l8.411-13.318a7.481,7.481,0,0,0-2.82-10.6c-3.511-1.865-7.19-3.684-8.052-3.6-1.75.167-2.457,8.447-2.457,8.447l-7.579.292s-3.745,15.571-7.039,17.34a14.47,14.47,0,0,0-5.2,4.911A2.715,2.715,0,0,0,1599.65,2041.05Z" transform="translate(-1596.91 -2005.866)"/>
              <path id="Path_1215" data-name="Path 1215" d="M1608.7,2060.584a.6.6,0,0,1-.089-1.2l11.637-1.752a8.209,8.209,0,0,0,5.838-3.912l10.282-17.178a.6.6,0,0,1,1.032.618l-10.282,17.178a9.4,9.4,0,0,1-6.69,4.483l-11.636,1.753A.722.722,0,0,1,1608.7,2060.584Z" transform="translate(-1605.106 -2028.12)" fill="#fff"/>
              <path id="Path_1216" data-name="Path 1216" d="M1644.627,2070.771a.621.621,0,0,1-.158-.022l-6.483-1.765a.6.6,0,0,1,.316-1.16l6.483,1.765a.6.6,0,0,1-.157,1.181Z" transform="translate(-1626.667 -2051.226)" fill="#fff"/>
              <path id="Path_1217" data-name="Path 1217" d="M1637.856,2085.131a.612.612,0,0,1-.143-.018l-4.347-1.063a.6.6,0,1,1,.285-1.167l4.347,1.064a.6.6,0,0,1-.142,1.184Z" transform="translate(-1623.273 -2062.257)" fill="#fff"/>
            </g>
            <g id="Group_8060" data-name="Group 8060" transform="translate(32.98 103.286)">
              <path id="Path_1218" data-name="Path 1218" d="M1468.015,2008.509l-14.853,14.923-7.874-2.892,13.691-19.092Z" transform="translate(-1444.688 -2000.847)" fill="#fff"/>
              <path id="Path_1219" data-name="Path 1219" d="M1451.518,2022.388a.593.593,0,0,1-.207-.037l-7.873-2.892a.6.6,0,0,1-.281-.914l13.691-19.091a.6.6,0,0,1,.859-.124l9.035,7.06a.6.6,0,0,1,.056.9l-14.852,14.923A.6.6,0,0,1,1451.518,2022.388Zm-6.925-3.784,6.77,2.487,14.1-14.169-8.008-6.258Z" transform="translate(-1443.044 -1999.203)"/>
            </g>
            <g id="Group_8061" data-name="Group 8061" transform="translate(0 119.506)">
              <path id="Path_1220" data-name="Path 1220" d="M1365.973,2063.832a42.737,42.737,0,0,1-.5,11.959,6.527,6.527,0,0,1-6.4,5.092H1322.62a2.787,2.787,0,0,1-1.79-4.925c6.481-5.43,18.4-13.722,33.063-16.155l4.088,5.722Z" transform="translate(-1319.826 -2059.803)"/>
              <path id="Path_1221" data-name="Path 1221" d="M1372.87,2118.795h-37.776a.6.6,0,1,1,0-1.2h37.776a.6.6,0,1,1,0,1.2Z" transform="translate(-1330.567 -2102.126)" fill="#fff"/>
              <path id="Path_1222" data-name="Path 1222" d="M1408.373,2080.451a.6.6,0,0,1-.556-.372l-2-4.85a.6.6,0,1,1,1.111-.459l2,4.85a.6.6,0,0,1-.327.784A.591.591,0,0,1,1408.373,2080.451Z" transform="translate(-1382.769 -2070.492)" fill="#fff"/>
              <path id="Path_1223" data-name="Path 1223" d="M1385.324,2086.514a.6.6,0,0,1-.57-.413l-1.447-4.376a.6.6,0,1,1,1.141-.377l1.447,4.376a.6.6,0,0,1-.382.759A.593.593,0,0,1,1385.324,2086.514Z" transform="translate(-1366.294 -2075.279)" fill="#fff"/>
            </g>
            <path id="Path_1224" data-name="Path 1224" d="M1570.242,1632.809s-67.878-7.9-88.062,9.571,31.862,92.607,31.862,92.607l16.459-12.207-15.612-53.1,62.746-17.819Z" transform="translate(-1435.319 -1626.283)"/>
            <path id="Path_1225" data-name="Path 1225" d="M1607.854,1654.412c-9.86,3.13-27.5,7.175-52.16,6.839a18.4,18.4,0,0,0-16.657,10.017c-7.3,14.323-23.111,40.112-48.861,56.828l-12.3-6.626,31.388-70.658a26.078,26.078,0,0,1,14.853-13.9l62.208-22.812s19.29-5.391,28.747,11.828c1.689,3.075,4.825-2.422,5.572.059C1623.207,1634.5,1616.322,1651.725,1607.854,1654.412Z" transform="translate(-1435.574 -1613.306)"/>
            <path id="Path_1226" data-name="Path 1226" d="M1540.511,1716.412a.6.6,0,0,1-.549-.845l14.184-31.93a26.818,26.818,0,0,1,15.194-14.216l29.792-10.925a.6.6,0,0,1,.415,1.129l-29.792,10.924a25.612,25.612,0,0,0-14.51,13.575l-14.185,31.929A.6.6,0,0,1,1540.511,1716.412Z" transform="translate(-1481.004 -1646.375)" fill="#fff"/>
            <path id="Path_1227" data-name="Path 1227" d="M1602.389,1948.412a.6.6,0,0,1-.433-1.017c2.831-2.944,5.617-6.108,8.282-9.4a.6.6,0,0,1,.934.756c-2.686,3.32-5.495,6.509-8.35,9.479A.6.6,0,0,1,1602.389,1948.412Z" transform="translate(-1526.32 -1850.926)" fill="#fff"/>
            <path id="Path_1228" data-name="Path 1228" d="M1633.458,1925.251a.6.6,0,0,1-.466-.979c1.305-1.613,2.61-3.294,3.878-5a.6.6,0,1,1,.964.718c-1.277,1.715-2.592,3.409-3.907,5.034A.6.6,0,0,1,1633.458,1925.251Z" transform="translate(-1549.074 -1837.205)" fill="#fff"/>
          </g>
          <g id="Group_8064" data-name="Group 8064" transform="translate(92.593 42.842)">
            <g id="Group_8063" data-name="Group 8063" transform="translate(12.159)">
              <path id="Path_1229" data-name="Path 1229" d="M1784.648,1300c-7.778-1.828-11.022-1.852-39.292-.828-6.91.25-15.128,8.922-15.941,15.788,2.2,6.586,12.331,39.1-5.362,64.509a54.986,54.986,0,0,1-10.609,11.348,35.563,35.563,0,0,0,12.217,6.531c9.121,2.708,13.707-.219,21.057,0,19.443.58,26.573,22.234,39.131,19.515,3.353-.726,7.8-3.342,11.964-12.115a135.025,135.025,0,0,0,5.633-25.472,139.691,139.691,0,0,0-6.655-61.637C1795.414,1313.318,1793.816,1302.154,1784.648,1300Z" transform="translate(-1712.843 -1297.891)" fill="#fff"/>
              <path id="Path_1230" data-name="Path 1230" d="M1782,1416.06c-5.2,0-9.5-3.84-14.38-8.2-5.912-5.277-12.611-11.259-22.566-11.556a39.957,39.957,0,0,0-7.11.572c-4,.577-8.142,1.173-14.1-.6a36.063,36.063,0,0,1-12.423-6.64.6.6,0,0,1,0-.935,54.608,54.608,0,0,0,10.494-11.224c16.248-23.33,9.109-52.511,5.285-63.975a.607.607,0,0,1-.027-.261c.816-6.894,8.972-16.044,16.516-16.318,28.751-1.041,31.7-.978,39.45.844,8.246,1.938,10.584,10.688,11.981,15.916.221.825.411,1.539.6,2.124a139.223,139.223,0,0,1,6.679,61.892,136.067,136.067,0,0,1-5.659,25.586.623.623,0,0,1-.028.072c-3.43,7.222-7.6,11.408-12.38,12.444A10.985,10.985,0,0,1,1782,1416.06Zm-37.722-20.969q.4,0,.813.012c10.391.31,17.265,6.447,23.33,11.861,5.348,4.775,9.964,8.9,15.656,7.667,4.394-.952,8.273-4.9,11.532-11.75a134.838,134.838,0,0,0,5.6-25.322,138.047,138.047,0,0,0-6.627-61.373c-.2-.623-.392-1.349-.617-2.19-1.328-4.967-3.55-13.281-11.1-15.055-7.606-1.788-10.531-1.849-39.132-.813-6.323.229-14.445,8.256-15.35,15.127,3.891,11.724,11.016,41.223-5.482,64.913a55.708,55.708,0,0,1-10.145,11,34.677,34.677,0,0,0,11.43,5.963c5.707,1.694,9.535,1.142,13.589.56A44.137,44.137,0,0,1,1744.279,1395.091Zm51.889,8.013h0Z" transform="translate(-1711.198 -1296.249)"/>
            </g>
            <path id="Path_1231" data-name="Path 1231" d="M1688.225,1341.126c1.607-10.594,5.9-30.675,15.544-32.966-4.635,14.247-4.737,29.409-4.118,45.813.718,18.983-17.709,43.552-18.281,43.181-8.164.038-13.987-.954-15.6-3.8l18.305-38.7A48.742,48.742,0,0,0,1688.225,1341.126Z" transform="translate(-1665.771 -1304.972)"/>
          </g>
          <g id="Group_8067" data-name="Group 8067" transform="translate(21.195 81.324)">
            <g id="Group_8066" data-name="Group 8066">
              <g id="Group_8065" data-name="Group 8065">
                <path id="Path_1232" data-name="Path 1232" d="M1404.3,1442.27h47.833a5.913,5.913,0,0,1,4.965,2.659l17.946,52.824h42.338v.792a4.518,4.518,0,0,1-4.518,4.518H1423.01a4.518,4.518,0,0,1-4.517-4.518v-.7l-16.22-49.393c-.247-.752-.551-1.482-.832-2.222A2.968,2.968,0,0,1,1404.3,1442.27Z" transform="translate(-1400.655 -1441.669)" fill="#fff"/>
                <path id="Path_1233" data-name="Path 1233" d="M1511.223,1502.018h-89.852a5.124,5.124,0,0,1-5.119-5.118v-.595L1400.062,1447c-.171-.523-.379-1.053-.579-1.564l-.245-.632a3.481,3.481,0,0,1,.4-3.214,3.607,3.607,0,0,1,3.017-1.566h47.833a6.482,6.482,0,0,1,5.469,2.933.621.621,0,0,1,.065.134l17.807,52.417h41.907a.6.6,0,0,1,.6.6v.792A5.125,5.125,0,0,1,1511.223,1502.018Zm-93.814-6.043a.6.6,0,0,1,.045.229v.7a3.921,3.921,0,0,0,3.917,3.917h89.852a3.921,3.921,0,0,0,3.917-3.917v-.191H1473.4a.6.6,0,0,1-.57-.408l-17.919-52.751a5.288,5.288,0,0,0-4.421-2.325h-47.833a2.421,2.421,0,0,0-2.028,1.046,2.28,2.28,0,0,0-.269,2.1l.241.621c.205.527.418,1.072.6,1.627Z" transform="translate(-1399.016 -1440.024)"/>
              </g>
              <path id="Path_1234" data-name="Path 1234" d="M1519.383,1539.079a4.168,4.168,0,0,1-2.226-.667,5.139,5.139,0,0,1-2.15-2.888,4.589,4.589,0,0,1,2.7-5.863,4.021,4.021,0,0,1,3.343.5,5.147,5.147,0,0,1,2.149,2.889h0a4.591,4.591,0,0,1-2.7,5.863A3.876,3.876,0,0,1,1519.383,1539.079Zm-.561-8.38a2.655,2.655,0,0,0-.764.112,3.4,3.4,0,0,0-1.9,4.366,3.944,3.944,0,0,0,1.64,2.219,2.841,2.841,0,0,0,2.354.368,3.4,3.4,0,0,0,1.9-4.366,3.941,3.941,0,0,0-1.64-2.219A2.985,2.985,0,0,0,1518.822,1530.7Z" transform="translate(-1483.793 -1505.548)"/>
              <path id="Path_1235" data-name="Path 1235" d="M1553.328,1648.881h-31.173a.6.6,0,1,1,0-1.2h31.173a.6.6,0,1,1,0,1.2Z" transform="translate(-1488.755 -1592.099)"/>
            </g>
          </g>
          <g id="Group_8072" data-name="Group 8072" transform="translate(134.466)">
            <g id="Group_8071" data-name="Group 8071">
              <g id="Group_8068" data-name="Group 8068" transform="translate(9.084 19.785)">
                <path id="Path_1236" data-name="Path 1236" d="M1867.266,1217.892l-.967,13.447a4.291,4.291,0,0,1-3.178,3.634l-4.724,1.232,3.064,2.334c6.795,5.174,16.206,6.233,23.01,1.072l4.85-3.679-5.868-1.311c-1.686-.377-2.982-2.779-3.289-4.479l-2.591-17.793Z" transform="translate(-1857.796 -1211.748)" fill="#fff"/>
                <path id="Path_1237" data-name="Path 1237" d="M1872.5,1241.975a21.641,21.641,0,0,1-13.042-4.6l-3.065-2.334a.6.6,0,0,1,.212-1.059l4.724-1.231a3.673,3.673,0,0,0,2.733-3.126l.964-13.418a.6.6,0,0,1,.314-.486l10.307-5.543a.6.6,0,0,1,.879.443l2.592,17.793c.3,1.639,1.532,3.69,2.826,3.978l5.868,1.311a.6.6,0,0,1,.232,1.066l-4.85,3.679A17.555,17.555,0,0,1,1872.5,1241.975Zm-14.4-7.145,2.081,1.585c7.074,5.386,16.029,5.816,22.284,1.071l3.818-2.9-4.6-1.029c-2.052-.458-3.428-3.176-3.75-4.958l-2.471-16.964-9.26,4.98-.944,13.118a4.876,4.876,0,0,1-3.626,4.173Z" transform="translate(-1856.153 -1210.104)"/>
              </g>
              <g id="Group_8070" data-name="Group 8070">
                <path id="Path_1238" data-name="Path 1238" d="M1825.488,1143.4c3.233-1.711.629,3.617,11.263-5.586,4.235-3.664,4.386,3.176,5.488,2.229,4.066-3.5,3.924-3.385,6.489-3.83,1.7-.3,3.972,2.048,4.647,4.266.891,2.928-1.056,4.68-.391,11.424.467,4.736,1.957,7.062.592,8.408-1.38,1.361-3.626-.3-5.246,1.069-2.1,1.776.3,5.726-1.252,8.525-.975,1.765-4.181,3.842-10.922,3.681a2.286,2.286,0,0,1-2.2-1.913c-.228-1.386-.507-3.139-.634-4.836-.6-8.085,1.137-10.772-.577-12.154-2.627-2.117-7.09,1.827-8.985-.033C1821.8,1152.718,1821.062,1145.739,1825.488,1143.4Z" transform="translate(-1822.214 -1136.185)"/>
                <g id="Group_8069" data-name="Group 8069" transform="translate(7.179 10.286)">
                  <path id="Path_1239" data-name="Path 1239" d="M1862.859,1177.742l-.134,2.209a22.578,22.578,0,0,0,.025,3.123c.151,1.95.386,5.307.375,7.2-.017,2.775-8.593,3.317-8.593,3.317l-1.089-1.212-1.006.043a1.127,1.127,0,0,1-.566-.114,1.083,1.083,0,0,1-.574-1.139c.406-2.45,1.116-7.861.33-12.068A11.733,11.733,0,0,1,1862.859,1177.742Z" transform="translate(-1850.681 -1176.282)" fill="#fff"/>
                  <path id="Path_1240" data-name="Path 1240" d="M1852.887,1192.519a.6.6,0,0,1-.447-.2l-.9-1-.724.03a1.728,1.728,0,0,1-.87-.181,1.685,1.685,0,0,1-.889-1.769c.361-2.174,1.113-7.68.333-11.859a.6.6,0,0,1,.213-.577,12.229,12.229,0,0,1,11.828-1.449.6.6,0,0,1,.382.6l-.134,2.209a22.156,22.156,0,0,0,.026,3.04c.145,1.88.387,5.322.375,7.246-.019,3.174-7.63,3.816-9.156,3.913Zm-1.088-2.413a.6.6,0,0,1,.447.2l.892.992c3.221-.244,7.732-1.236,7.741-2.7.012-1.879-.227-5.283-.372-7.145a23.425,23.425,0,0,1-.027-3.206l.107-1.764a11.075,11.075,0,0,0-9.95,1.209,40.049,40.049,0,0,1-.394,11.9.485.485,0,0,0,.26.507.553.553,0,0,0,.263.047l1.007-.042Z" transform="translate(-1849.036 -1174.614)"/>
                </g>
                <path id="Path_1241" data-name="Path 1241" d="M1900.164,1192.645s.316-5.311,2.7-4.64S1904.747,1194.514,1900.164,1192.645Z" transform="translate(-1879.3 -1174.092)" fill="#fff"/>
              </g>
            </g>
          </g>
          <g id="Group_8073" data-name="Group 8073" transform="translate(142.947 46.475)">
            <path id="Path_1242" data-name="Path 1242" d="M1866.477,1324.817l-10.33,25.74,7.629,17.146,9.9-14.966-3.407-27.436,5.2-7.172-3.921-5.634-3.255-.427-4.508,5.063Z" transform="translate(-1855.547 -1311.466)" fill="#fff"/>
            <path id="Path_1243" data-name="Path 1243" d="M1862.134,1366.66l-.05,0a.6.6,0,0,1-.5-.354l-7.629-17.146a.6.6,0,0,1-.008-.469l10.245-25.531-2.622-7.472a.6.6,0,0,1,.118-.6l4.508-5.064a.6.6,0,0,1,.527-.2l3.255.428a.6.6,0,0,1,.415.253l3.922,5.634a.6.6,0,0,1-.007.7l-5.061,6.979,3.378,27.2a.6.6,0,0,1-.1.405l-9.9,14.967A.6.6,0,0,1,1862.134,1366.66Zm-6.977-17.759,7.08,15.912,9.168-13.866-3.379-27.216a.6.6,0,0,1,.11-.426l4.949-6.826-3.526-5.066-2.677-.352-4.06,4.561,2.58,7.352a.6.6,0,0,1-.01.423Z" transform="translate(-1853.903 -1309.822)"/>
          </g>
          <g id="Group_8074" data-name="Group 8074" transform="translate(158.191 36.769)">
            <path id="Path_1244" data-name="Path 1244" d="M1923.4,1298.029c3.116-5.517,5.666-12.636,2.217-17.128l-4.721-5.1s-.379,9.024-7.8,9.74Z" transform="translate(-1912.5 -1275.202)" fill="#fff"/>
            <path id="Path_1245" data-name="Path 1245" d="M1921.762,1296.986a.6.6,0,0,1-.464-.219l-10.3-12.485a.6.6,0,0,1,.406-.981c6.806-.656,7.241-8.821,7.257-9.168a.6.6,0,0,1,1.041-.382l4.721,5.1c3.788,4.928.927,12.413-2.134,17.832a.6.6,0,0,1-.471.3Zm-9.168-12.655,9.068,10.989c2.314-4.3,5.161-11.372,1.839-15.7l-3.807-4.108C1919.268,1278,1917.766,1283.212,1912.594,1284.332Z" transform="translate(-1910.857 -1273.559)"/>
          </g>
          <g id="Group_8075" data-name="Group 8075" transform="translate(144.102 37.326)">
            <path id="Path_1246" data-name="Path 1246" d="M1873.3,1287.076c-5.282-.409-5.88-9.188-5.88-9.188s-5.426,3.665-6.5,9.074a19.871,19.871,0,0,0,1.633,13.3Z" transform="translate(-1859.873 -1277.287)" fill="#fff"/>
            <path id="Path_1247" data-name="Path 1247" d="M1860.894,1299.217a.357.357,0,0,1-.043,0,.6.6,0,0,1-.472-.289c-.137-.226-3.318-5.641-1.708-13.726,1.112-5.587,6.527-9.3,6.756-9.455a.6.6,0,0,1,.936.457c.005.083.625,8.266,5.327,8.63a.6.6,0,0,1,.42.979L1861.36,1299A.6.6,0,0,1,1860.894,1299.217Zm4.394-21.854c-1.511,1.235-4.67,4.214-5.438,8.072a20.148,20.148,0,0,0,1.164,12.082l9.523-11.678C1866.776,1284.746,1865.619,1279.633,1865.288,1277.364Z" transform="translate(-1858.218 -1275.643)"/>
          </g>
          <g id="Group_8076" data-name="Group 8076" transform="translate(105.953 36.03)">
            <path id="Path_1248" data-name="Path 1248" d="M1759.722,1282.008c-2.876.1-8.48,2.559-12.125,2.691-6.91.25-15.128,8.922-15.941,15.788,2.2,6.586,12.331,39.1-5.362,64.509a54.954,54.954,0,0,1-10.61,11.348,35.581,35.581,0,0,0,12.217,6.531,25.923,25.923,0,0,0,10.118,1.04Z" transform="translate(-1715.685 -1279.009)"/>
            <path id="Path_1249" data-name="Path 1249" d="M1905.846,1294.958c-1.377-4.318-4.088-15.545-12.513-19.757-3.2-1.6-7.328-4.177-10.4-4.4l-21.4,104.594c7.2,6,25.436,23.193,32.8,21.6,3.353-.726,8.368-6.153,12.535-14.926a135.036,135.036,0,0,0,5.634-25.472A139.7,139.7,0,0,0,1905.846,1294.958Z" transform="translate(-1822.498 -1270.801)"/>
          </g>
          <g id="Group_8079" data-name="Group 8079" transform="translate(101.408 38.83)">
            <g id="Group_8077" data-name="Group 8077" transform="translate(2.542 94.957)">
              <path id="Path_1250" data-name="Path 1250" d="M1708.993,1642.786c-.144,0-.228-.007-.25-.009a.6.6,0,0,1,.117-1.2c.063.007,4.04.253,10.253-5.389a.6.6,0,1,1,.807.89C1714.053,1642.409,1710.017,1642.786,1708.993,1642.786Z" transform="translate(-1708.202 -1636.036)"/>
              <path id="Path_1251" data-name="Path 1251" d="M1723.458,1653.419a3.15,3.15,0,0,1-.464-.027.6.6,0,0,1,.182-1.188c.051.008,3.541.42,9.022-4.344a.6.6,0,1,1,.789.908C1728.128,1652.989,1724.666,1653.419,1723.458,1653.419Z" transform="translate(-1718.663 -1644.588)"/>
            </g>
            <g id="Group_8078" data-name="Group 8078" transform="translate(0 42.498)">
              <path id="Path_1252" data-name="Path 1252" d="M1709.043,1493.13c2.738-4.285,7.766-6.456,10.529-6.3,12.568.71,36.8-12.005,54.823-18.15,3.122-4.541.851-14.474,2.27-26.393l22.987,1.986c2.293,11.362,1.419,30.649-.568,33.2-1.314,3.129-8.462,12.217-22.987,19.3-22.7,11.068-53.094,3.833-53.094,3.833s-15.4,8.142-22.053-.706C1700.951,1499.9,1706.305,1497.414,1709.043,1493.13Z" transform="translate(-1700.35 -1441.686)" fill="#fff"/>
              <path id="Path_1253" data-name="Path 1253" d="M1708.539,1503.011c-3.611,0-7.215-1.071-9.713-4.393a.6.6,0,0,1,.227-.906c.052-.024,5.231-2.47,7.839-6.551,2.743-4.294,7.894-6.755,11.069-6.576,8.448.475,22.491-5.308,36.079-10.9,6.21-2.557,12.628-5.2,18.323-7.151,1.628-2.552,1.591-6.948,1.546-12.481a103.967,103.967,0,0,1,.515-13.48.6.6,0,0,1,.649-.527l22.987,1.987a.6.6,0,0,1,.537.48c2.252,11.159,1.533,30.556-.631,33.622-1.213,2.78-7.933,12.071-23.249,19.537-21.621,10.54-50.468,4.549-53.276,3.927C1720.245,1500.2,1714.384,1503.01,1708.539,1503.011Zm-8.3-4.554c6.505,7.422,20.691.052,20.837-.026a.6.6,0,0,1,.42-.053c.3.072,30.449,7.055,52.692-3.789,13.986-6.818,21.331-15.738,22.7-18.99a.577.577,0,0,1,.08-.136c1.781-2.29,2.693-21,.54-32.274l-21.954-1.9a106.2,106.2,0,0,0-.44,12.75c.048,5.864.086,10.5-1.865,13.334a.6.6,0,0,1-.3.228c-5.707,1.946-12.184,4.612-18.447,7.191-13.714,5.646-27.89,11.479-36.6,10.991-2.49-.141-7.338,1.875-9.988,6.023A21.483,21.483,0,0,1,1700.242,1498.457Zm7.157-6.973h0Z" transform="translate(-1698.706 -1440.041)"/>
            </g>
            <path id="Path_1254" data-name="Path 1254" d="M1867.25,1358.931a4.2,4.2,0,0,0,.72-2.032c.409-4.739,1.555-22.431,1.547-22.564-.16-2.606-1.4-22.056-3.152-29.9-3.958-17.7-27.922-23.177-27.922-23.177,4.492,15.166,5.492,35.16,4.067,49.111-.069.675-1.1,13.268-1.115,18.663a3.533,3.533,0,0,1-2.392,3.326l-46.958,16.094,2.2,17.8C1828.237,1387.188,1853.438,1378.98,1867.25,1358.931Z" transform="translate(-1767.063 -1281.261)"/>
          </g>
          <path id="Path_1255" data-name="Path 1255" d="M1899.784,1445.04a.6.6,0,0,1-.2-1.167c4.709-1.68,14.234-7.587,15.316-8.833-.064-2.317-.63-24.309.408-36.669a.607.607,0,0,1,.65-.548.6.6,0,0,1,.547.649c-1.085,12.925-.405,36.494-.4,36.73a.6.6,0,0,1-.064.287c-.753,1.508-11.557,7.912-16.055,9.517A.621.621,0,0,1,1899.784,1445.04Z" transform="translate(-1744.117 -1327.793)" fill="#fff"/>
          <path id="Path_1256" data-name="Path 1256" d="M1768.243,1434.162a.494.494,0,0,1-.069,0,.6.6,0,0,1-.528-.666c1.829-15.807,4.7-43.08,4.73-43.353a.6.6,0,1,1,1.194.125c-.028.274-2.9,27.553-4.731,43.366A.6.6,0,0,1,1768.243,1434.162Z" transform="translate(-1647.782 -1321.774)" fill="#fff"/>
        </g>
        <g id="Group_8084" data-name="Group 8084" transform="translate(0 141.126)">
          <g id="Group_8081" data-name="Group 8081" transform="translate(150.979 7.843)">
            <path id="Path_1257" data-name="Path 1257" d="M1792.831,1817.1l26.579-110.3,26.579,110.3h6.371l-29.2-122.087-7.491-.011-29.205,122.1Z" transform="translate(-1785.859 -1694.404)" fill="#fff"/>
            <path id="Path_1258" data-name="Path 1258" d="M1850.715,1816.061h-6.371a.6.6,0,0,1-.584-.46l-26-107.88-26,107.88a.6.6,0,0,1-.584.46h-6.37a.6.6,0,0,1-.585-.741l29.205-122.1a.6.6,0,0,1,.585-.462h0l7.491.011a.6.6,0,0,1,.584.461l29.2,122.088a.6.6,0,0,1-.584.741Zm-5.9-1.2h5.136l-28.916-120.887-6.542-.01-28.918,120.9h5.135l26.47-109.844a.6.6,0,0,1,1.167,0Z" transform="translate(-1784.214 -1692.76)"/>
          </g>
          <g id="Group_8082" data-name="Group 8082" transform="translate(0 7.465)">
            <path id="Path_1259" data-name="Path 1259" d="M1228.748,1815.689l26.579-110.3,26.579,110.3h6.371l-29.2-122.087-7.492-.011-29.205,122.1Z" transform="translate(-1221.776 -1692.99)" fill="#fff"/>
            <path id="Path_1260" data-name="Path 1260" d="M1286.633,1814.647h-6.372a.6.6,0,0,1-.585-.46l-25.994-107.88-26,107.88a.6.6,0,0,1-.584.46h-6.37a.6.6,0,0,1-.585-.74l29.206-122.1a.6.6,0,0,1,.584-.461l7.492.01a.6.6,0,0,1,.584.462l29.2,122.088a.6.6,0,0,1-.584.74Zm-5.9-1.2h5.136l-28.917-120.887-6.542-.009-28.918,120.9h5.135L1253.1,1703.6a.6.6,0,0,1,1.168,0Z" transform="translate(-1220.131 -1691.347)"/>
          </g>
          <g id="Group_8083" data-name="Group 8083" transform="translate(2.828)">
            <rect id="Rectangle_1631" data-name="Rectangle 1631" width="209.646" height="9.974" transform="translate(0.601 0.601)" fill="#fff"/>
            <path id="Path_1261" data-name="Path 1261" d="M1440.945,1674.632H1231.3a.6.6,0,0,1-.6-.6v-9.974a.6.6,0,0,1,.6-.6h209.646a.6.6,0,0,1,.6.6v9.974A.6.6,0,0,1,1440.945,1674.632Zm-209.046-1.2h208.445v-8.772H1231.9Z" transform="translate(-1230.698 -1663.456)"/>
          </g>
          <path id="Path_1262" data-name="Path 1262" d="M1777.413,1677.971a.6.6,0,0,1-.6-.6v-5.553a.6.6,0,1,1,1.2,0v5.553A.6.6,0,0,1,1777.413,1677.971Z" transform="translate(-1627.815 -1669.139)"/>
        </g>
      </g>
      <g id="Group_8114" data-name="Group 8114" transform="translate(91.571 762.086)">
        <g id="Group_8113" data-name="Group 8113" transform="translate(0 0)">
          <g id="Group_8099" data-name="Group 8099" transform="translate(0 96.446)">
            <path id="Path_1292" data-name="Path 1292" d="M793.47,1450.007s-2.691,9.228,37.466,11.473,33.438-9.162,33.438-9.162l-42.159-12.282Z" transform="translate(-792.831 -1439.435)" fill="#fff"/>
            <path id="Path_1293" data-name="Path 1293" d="M838.854,1460.723q-4.43,0-9.6-.289c-26.327-1.472-34.776-5.913-37.227-9.379a3.483,3.483,0,0,1-.782-2.861.6.6,0,0,1,.38-.4l28.745-9.971a.6.6,0,0,1,.365-.009L862.9,1450.1a.6.6,0,0,1,.35.271,4.452,4.452,0,0,1-.181,4.443C860.687,1458.714,852.382,1460.723,838.854,1460.723ZM792.387,1448.8a3.079,3.079,0,0,0,.7,1.66c1.959,2.629,9.272,7.264,36.24,8.773,24.886,1.393,31.172-2.552,32.7-5.026a3.287,3.287,0,0,0,.279-3.033l-41.719-12.154Z" transform="translate(-791.185 -1437.79)"/>
          </g>
          <g id="Group_8104" data-name="Group 8104" transform="translate(6.511 103.014)">
            <g id="Group_8100" data-name="Group 8100" transform="translate(23.167 147.35)">
              <path id="Path_1294" data-name="Path 1294" d="M914.828,2015.819l-.51,18.949-6.692.723-3.311-20.392Z" transform="translate(-903.713 -2014.498)" fill="#fff"/>
              <path id="Path_1295" data-name="Path 1295" d="M905.98,2034.448a.6.6,0,0,1-.593-.505l-3.312-20.392a.6.6,0,0,1,.634-.7l10.513.719a.6.6,0,0,1,.56.616l-.509,18.95a.6.6,0,0,1-.536.581l-6.693.723A.644.644,0,0,1,905.98,2034.448Zm-2.6-20.342,3.1,19.082,5.6-.605.48-17.848Z" transform="translate(-902.068 -2012.854)"/>
            </g>
            <g id="Group_8101" data-name="Group 8101" transform="translate(60.724 154.291)">
              <path id="Path_1296" data-name="Path 1296" d="M1055.567,2041.032l1.068,15.092-8.844.724-3.157-15.817Z" transform="translate(-1044.033 -2040.431)" fill="#fff"/>
              <path id="Path_1297" data-name="Path 1297" d="M1046.146,2055.805a.6.6,0,0,1-.589-.484l-3.157-15.816a.6.6,0,0,1,.589-.719h10.934a.6.6,0,0,1,.6.559l1.068,15.093a.6.6,0,0,1-.551.641l-8.844.723Zm-2.424-15.817,2.909,14.573,7.718-.631-.986-13.942Z" transform="translate(-1042.388 -2038.786)"/>
            </g>
            <g id="Group_8102" data-name="Group 8102" transform="translate(60.489 162.18)">
              <path id="Path_1298" data-name="Path 1298" d="M1044.786,2084.881a2.276,2.276,0,0,1-1.006-1.832c-.058-2.216-.065-6.932.828-8.705,1.185-2.352,6.075.927,6.075.927s2.861-3.967,4.537-4.8c.868-.432,5.942,2.947,11.058,7.552,5.607,5.047,8.138,6.657,9.347,11.009a3.39,3.39,0,0,1-3.046,4.246C1067.431,2093.646,1057.038,2093.031,1044.786,2084.881Z" transform="translate(-1043.157 -2069.852)" fill="#fff"/>
              <path id="Path_1299" data-name="Path 1299" d="M1068.668,2092.368c-5.682,0-15.072-1.4-25.86-8.577a2.871,2.871,0,0,1-1.273-2.317c-.067-2.563-.04-7.141.893-8.991a2.064,2.064,0,0,1,1.352-1.09c1.655-.434,4.06.849,5.107,1.481.84-1.118,2.958-3.8,4.422-4.531,1.7-.85,9.044,5.228,11.728,7.644.883.795,1.69,1.5,2.426,2.152,4.016,3.533,6.031,5.3,7.1,9.142a3.908,3.908,0,0,1-.584,3.308,4.01,4.01,0,0,1-3,1.7C1070.3,2092.336,1069.525,2092.368,1068.668,2092.368Zm-24.136-19.865a1.785,1.785,0,0,0-.448.052.856.856,0,0,0-.584.469c-.585,1.163-.871,4.31-.763,8.418a1.668,1.668,0,0,0,.737,1.348c12.117,8.06,22.382,8.66,27.418,8.3a2.812,2.812,0,0,0,2.1-1.192,2.712,2.712,0,0,0,.408-2.295c-.97-3.493-2.776-5.082-6.732-8.562-.74-.65-1.55-1.364-2.437-2.161-5.444-4.9-9.634-7.414-10.438-7.436-1.274.679-3.507,3.532-4.27,4.589a.6.6,0,0,1-.821.148A9.834,9.834,0,0,0,1044.532,2072.5Z" transform="translate(-1041.512 -2068.261)"/>
            </g>
            <path id="Path_1300" data-name="Path 1300" d="M1071.429,2118.117a36.127,36.127,0,0,1-22.646-8.046.6.6,0,0,1,.749-.939,34.043,34.043,0,0,0,26.863,7.358.6.6,0,0,1,.273,1.171A26.127,26.127,0,0,1,1071.429,2118.117Z" transform="translate(-986.181 -1935.917)"/>
            <g id="Group_8103" data-name="Group 8103" transform="translate(13.599 159.259)">
              <path id="Path_1301" data-name="Path 1301" d="M891.285,2071.964l-.1-10.375s-2.08-3.147-4.933-.589c0,0-2.637-3.7-7.531.911,0,0-6.888,12.838-9.937,20.475a3.156,3.156,0,0,0,2.843,4.336c3.161.073,7.249-.1,9.029-1.3,2.783-1.882,7.547-7.814,9.624-10.486A4.764,4.764,0,0,0,891.285,2071.964Z" transform="translate(-867.96 -2058.995)" fill="#fff"/>
              <path id="Path_1302" data-name="Path 1302" d="M871.26,2085.692q-.621,0-1.281-.015a3.693,3.693,0,0,1-3.032-1.679,3.775,3.775,0,0,1-.354-3.48c3.026-7.58,9.9-20.407,9.965-20.536a.616.616,0,0,1,.117-.154c1.91-1.8,3.748-2.625,5.462-2.458a4.355,4.355,0,0,1,2.541,1.162,3.536,3.536,0,0,1,2.586-.755,4.4,4.4,0,0,1,2.788,1.835.6.6,0,0,1,.1.326l.1,10.375a5.389,5.389,0,0,1-1.128,3.346c-2.454,3.158-6.985,8.738-9.761,10.615C877.966,2085.217,875.243,2085.692,871.26,2085.692Zm6.31-25.055c-.609,1.142-6.991,13.136-9.862,20.327a2.544,2.544,0,0,0,.241,2.374,2.508,2.508,0,0,0,2.057,1.138c4.306.1,7.389-.325,8.679-1.2,2.737-1.85,7.545-7.859,9.485-10.356a4.183,4.183,0,0,0,.876-2.6h0l-.1-10.179a3.075,3.075,0,0,0-1.848-1.176,2.657,2.657,0,0,0-2.084.833.615.615,0,0,1-.467.151.606.606,0,0,1-.424-.249,3.125,3.125,0,0,0-2.13-1.138C880.669,2058.442,879.18,2059.141,877.57,2060.637Z" transform="translate(-866.322 -2057.349)"/>
            </g>
            <path id="Path_1303" data-name="Path 1303" d="M933.037,2069.387a.6.6,0,0,1-.6-.6l0-5.593a.6.6,0,0,1,.6-.6h0a.6.6,0,0,1,.6.6l0,5.594a.6.6,0,0,1-.6.6Z" transform="translate(-901.139 -1901.93)"/>
            <path id="Path_1304" data-name="Path 1304" d="M890.456,1618.077s2.523-38.1-1.617-72.368S869.3,1462.5,869.3,1462.5s-16.571-.752-28.634.87-16.836-.047-16.836-.047-9.005,10.311-8.27,29.7,21.747,101.152,20.951,120.343a27.526,27.526,0,0,0,16.22,1.786l-3.794-110.2s7.85,22.686,11.535,38.227a74.4,74.4,0,0,0,8.215,20.866s-.221,29.453,6.538,53.9C875.22,1617.94,883.2,1620.439,890.456,1618.077Z" transform="translate(-815.512 -1462.329)"/>
            <path id="Path_1305" data-name="Path 1305" d="M1028.534,1865.506a.6.6,0,0,1-.5-.261l-5.786-8.42a.6.6,0,0,1,.991-.681l5.786,8.42a.6.6,0,0,1-.495.942Z" transform="translate(-966.84 -1750.548)" fill="#fff"/>
            <path id="Path_1306" data-name="Path 1306" d="M881.5,1806.938a11.28,11.28,0,0,1-6.745-1.987.6.6,0,0,1,.716-.965c3.706,2.75,9.133,1.419,9.188,1.405a.6.6,0,0,1,.3,1.165A15.2,15.2,0,0,1,881.5,1806.938Z" transform="translate(-858.72 -1712.453)" fill="#fff"/>
          </g>
          <g id="Group_8110" data-name="Group 8110" transform="translate(0.035 40.918)">
            <g id="Group_8105" data-name="Group 8105" transform="translate(56.178 10.639)">
              <path id="Path_1307" data-name="Path 1307" d="M1003.451,1292.034s9.294,20.907,24.45,25.177,25.711-8.635,25.644-21.957l-5.152-1.708s-5.287,13.653-17.079,10.1-17.264-31.324-17.264-31.324Z" transform="translate(-1002.85 -1271.721)" fill="#fff"/>
              <path id="Path_1308" data-name="Path 1308" d="M1032.079,1317.009a22.014,22.014,0,0,1-5.985-.865c-15.251-4.3-24.451-24.648-24.835-25.512a.6.6,0,0,1,.02-.528l10.6-19.711a.6.6,0,0,1,.619-.31.6.6,0,0,1,.5.478c.054.275,5.537,27.458,16.847,30.866,11.12,3.353,16.137-9.207,16.345-9.743a.6.6,0,0,1,.75-.353l5.151,1.708a.6.6,0,0,1,.412.567c.04,7.761-3.443,15.252-9.09,19.551A18.494,18.494,0,0,1,1032.079,1317.009Zm-29.6-26.6c1.141,2.424,10.149,20.693,23.94,24.579,7.6,2.141,13.04-.333,16.262-2.787,5.25-4,8.527-10.922,8.615-18.158l-4.216-1.4c-1.008,2.2-5.38,10.546-13.612,10.547a13.726,13.726,0,0,1-3.972-.614c-10.466-3.154-15.952-24.108-17.334-30.178Z" transform="translate(-1001.207 -1270.074)"/>
            </g>
            <g id="Group_8106" data-name="Group 8106">
              <path id="Path_1309" data-name="Path 1309" d="M793.56,1242.758s9.319-12.163,35.648-9.89c31.439,2.713,33.836,8.926,33.836,8.926l-8.208,16.629,9.631,41.969s-6.58,5.451-22,2.391-41.905-6.816-48.908-4.7l9.765-40.048Z" transform="translate(-792.959 -1231.981)" fill="#fff"/>
              <path id="Path_1310" data-name="Path 1310" d="M849.766,1302.669a46.557,46.557,0,0,1-9.055-.951c-15.63-3.1-41.889-6.747-48.618-4.715a.606.606,0,0,1-.587-.139.6.6,0,0,1-.171-.578l9.7-39.8-9.63-15.058a.6.6,0,0,1,.029-.689c.389-.507,9.824-12.4,36.176-10.123,31.452,2.714,34.242,9.04,34.345,9.308a.6.6,0,0,1-.022.482l-8.113,16.437,9.583,41.761a.6.6,0,0,1-.2.6C862.991,1299.38,858.885,1302.669,849.766,1302.669Zm-51.415-7.452c10.819,0,29.765,2.775,42.594,5.322,13.2,2.621,19.793-1.106,21.2-2.054l-9.542-41.582a.594.594,0,0,1,.047-.4l8.06-16.331c-.8-1.019-6.04-6.016-33.2-8.359-23.317-2.012-33.155,7.476-34.849,9.344l9.528,14.9a.6.6,0,0,1,.078.467l-9.532,39.091A31.494,31.494,0,0,1,798.351,1295.217Z" transform="translate(-791.316 -1230.327)"/>
            </g>
            <g id="Group_8107" data-name="Group 8107" transform="translate(60.604 1.403)">
              <path id="Path_1311" data-name="Path 1311" d="M1060.494,1285.911h-40.5l26.566-48.1h40.5Z" transform="translate(-1019.388 -1237.215)" fill="#fff"/>
              <path id="Path_1312" data-name="Path 1312" d="M1058.849,1284.868h-40.5a.6.6,0,0,1-.526-.892l26.566-48.1a.6.6,0,0,1,.526-.31h40.5a.6.6,0,0,1,.526.891l-26.567,48.1A.6.6,0,0,1,1058.849,1284.868Zm-39.487-1.2h39.132l25.9-46.894h-39.132Z" transform="translate(-1017.743 -1235.57)"/>
            </g>
            <g id="Group_8108" data-name="Group 8108" transform="translate(101.701 28.995)">
              <path id="Path_1313" data-name="Path 1313" d="M1173.875,1359.887s-.761-3.988,0-6.649,5.48-10.575,6.829-12.231S1183.2,1357.034,1173.875,1359.887Z" transform="translate(-1172.935 -1340.298)" fill="#fff"/>
              <path id="Path_1314" data-name="Path 1314" d="M1172.228,1358.848a.6.6,0,0,1-.59-.488c-.032-.169-.779-4.16.012-6.927.769-2.688,5.509-10.687,6.942-12.446a.8.8,0,0,1,.907-.283c1.073.4,1.092,3.733,1.05,5.147-.182,6.087-2.416,13.216-8.144,14.969A.591.591,0,0,1,1172.228,1358.848Zm6.9-18.579c-1.691,2.381-5.664,9.182-6.325,11.495a15.582,15.582,0,0,0-.1,5.674c3.079-1.27,4.684-4.375,5.5-6.84A23.031,23.031,0,0,0,1179.13,1340.269Z" transform="translate(-1171.287 -1338.658)"/>
            </g>
            <g id="Group_8109" data-name="Group 8109" transform="translate(0.983 11.714)">
              <path id="Path_1315" data-name="Path 1315" d="M813.528,1302.275l31.188-15.031,16.2,2.868a3.47,3.47,0,0,1-3.437,1.293,8.288,8.288,0,0,0-7.295,2.386c-1.929,2.123-5.181.772-5.181.772s-17.64,22.665-33.48,25.588c-12.877,2.377-14.295-43.815-14.295-43.815l15.491,13.738Z" transform="translate(-796.632 -1275.736)" fill="#fff"/>
              <path id="Path_1316" data-name="Path 1316" d="M808.935,1319.2a5.826,5.826,0,0,1-3.713-1.4c-9.034-7.288-10.189-41.627-10.234-43.085a.6.6,0,0,1,1-.468l15.491,13.738a.6.6,0,0,1,.2.41l.745,11.312,30.386-14.645a.611.611,0,0,1,.366-.051l16.2,2.868a.6.6,0,0,1,.395.927,4.047,4.047,0,0,1-4.038,1.55,7.689,7.689,0,0,0-6.748,2.2c-1.762,1.939-4.385,1.394-5.419,1.076-2.354,2.955-18.571,22.7-33.578,25.471A5.785,5.785,0,0,1,808.935,1319.2Zm-12.686-43.115c.32,6.631,2.114,34.639,9.727,40.781a4.489,4.489,0,0,0,3.8,1.054c15.432-2.848,32.941-25.142,33.116-25.366a.6.6,0,0,1,.705-.186c.027.011,2.888,1.157,4.505-.621a8.937,8.937,0,0,1,7.841-2.575,2.954,2.954,0,0,0,2.015-.324l-14.8-2.619-31.013,14.947a.6.6,0,0,1-.861-.5l-.788-11.954Z" transform="translate(-794.988 -1274.092)"/>
            </g>
          </g>
          <g id="Group_8112" data-name="Group 8112" transform="translate(8.911)">
            <path id="Path_1317" data-name="Path 1317" d="M848.747,1108.717a8.677,8.677,0,0,1-5.325,1.079c-2.223-.143-11.535-1.639-16.223-9.918-4.59-8.108-2.8-19.292,1.148-20.792,2.838-1.077,6.062,3.115,10.355,1.417,1.9-.752,1.707-1.747,3.726-2.544,3.4-1.343,7.053.257,9.839,1.523,5.085,2.311,4.59,3.746,9.027,5.942,6.32,3.126,10.585,1.826,11.425,4.263.67,1.942-1.344,4.779-3.542,6.2-4.548,2.942-8.484-1.236-12.108,1.6-2.251,1.764-2.637,4.767-6.45,9.52A7.286,7.286,0,0,1,848.747,1108.717Z" transform="translate(-824.478 -1077.45)"/>
            <g id="Group_8111" data-name="Group 8111" transform="translate(10.765 15.631)">
              <path id="Path_1318" data-name="Path 1318" d="M884.4,1159.546c-.051-.729-.1-1.536-.124-2.375a5.176,5.176,0,0,0,3.979,1.084c1.291-.382,1.772-1.583,2.561-2.973a4.3,4.3,0,0,1,1.453-1.763,3.447,3.447,0,0,1,1.26-.468,1,1,0,0,0,.827-1.036l-.058-.31a19,19,0,0,1,.059-7.366l.988-4.794c-2.385-1.6-3.374-1.635-3.82-1.3-.164.124-.379.182-.53.92-.729,3.562-3.844,2.5-6.375,1.267s-2.67,3.925-2.67,3.925-1.193-2.5-3.443-1.044c-1.612,1.046.485,3.789,1.8,5.26l-3.292,10.042a7.276,7.276,0,0,1-5.919,4.942l-4.161.574s15.308,4.546,27.63,1.3l-6.814-1.815A4.534,4.534,0,0,1,884.4,1159.546Z" transform="translate(-866.34 -1137.479)" fill="#fff"/>
              <path id="Path_1319" data-name="Path 1319" d="M882.852,1165.584a69.123,69.123,0,0,1-17.725-2.5.6.6,0,0,1,.088-1.171l4.16-.575a6.718,6.718,0,0,0,5.431-4.533l3.185-9.714c-1.671-1.921-2.442-3.465-2.292-4.593a1.813,1.813,0,0,1,.839-1.311,2.807,2.807,0,0,1,2.349-.462,2.718,2.718,0,0,1,.973.516,4.368,4.368,0,0,1,1.487-2.972,1.889,1.889,0,0,1,1.9,0c1.358.662,3.293,1.479,4.435.917a2.307,2.307,0,0,0,1.088-1.766,1.715,1.715,0,0,1,.718-1.252c.891-.67,2.284-.276,4.556,1.252a.6.6,0,0,1,.253.62l-.987,4.794a18.283,18.283,0,0,0-.058,7.133l.058.309a.609.609,0,0,1,.01.087,1.606,1.606,0,0,1-1.327,1.654,2.869,2.869,0,0,0-1.042.385,3.387,3.387,0,0,0-1.159,1.389l-.091.161c-.11.193-.214.381-.313.564-.644,1.178-1.253,2.291-2.6,2.689a5,5,0,0,1-3.5-.576c.021.409.046.827.076,1.25a3.933,3.933,0,0,0,2.91,3.531l6.814,1.815a.6.6,0,0,1,0,1.161A40.468,40.468,0,0,1,882.852,1165.584Zm-14.389-2.911c4.587,1.019,13.686,2.561,21.924,1.074l-4.429-1.18a5.137,5.137,0,0,1-3.8-4.61c-.057-.826-.1-1.633-.124-2.4a.6.6,0,0,1,.942-.515,4.669,4.669,0,0,0,3.467,1c.871-.258,1.3-1.036,1.887-2.113.1-.188.21-.382.322-.58l.086-.155a4.537,4.537,0,0,1,1.571-1.821,4.028,4.028,0,0,1,1.478-.55.4.4,0,0,0,.327-.385l-.049-.257a19.5,19.5,0,0,1,.061-7.6l.906-4.4c-2.26-1.457-2.767-1.113-2.787-1.1l-.086.061c-.063.043-.134.091-.218.5a3.452,3.452,0,0,1-1.734,2.6c-1.6.785-3.773-.077-5.493-.916-.462-.225-.667-.1-.744-.053-.677.409-1.029,2.266-1.062,3.455a.6.6,0,0,1-1.143.242,2.317,2.317,0,0,0-1.211-1.115,1.657,1.657,0,0,0-1.361.316.611.611,0,0,0-.3.462c-.1.769.73,2.224,2.226,3.894a.6.6,0,0,1,.124.588l-3.292,10.042a7.927,7.927,0,0,1-6.409,5.349Z" transform="translate(-864.696 -1135.85)"/>
            </g>
            <path id="Path_1320" data-name="Path 1320" d="M921.933,1191.921a.593.593,0,0,1-.312-.088c-2.9-1.764-3.248-6.293-3.261-6.485a.6.6,0,0,1,.556-.641.607.607,0,0,1,.642.556c0,.041.325,4.1,2.688,5.544a.6.6,0,0,1-.313,1.114Z" transform="translate(-893.231 -1155.998)"/>
          </g>
        </g>
      </g>
    </g>
  </g>
</svg>
