<svg xmlns="http://www.w3.org/2000/svg" xmlns:xlink="http://www.w3.org/1999/xlink" width="387" height="402" viewBox="0 0 387 402">
  <defs>
    <filter id="Ellipse_216" x="0" y="359" width="387" height="43" filterUnits="userSpaceOnUse">
      <feOffset dy="3" input="SourceAlpha"/>
      <feGaussianBlur stdDeviation="3" result="blur"/>
      <feFlood flood-color="#f7a823"/>
      <feComposite operator="in" in2="blur"/>
      <feComposite in="SourceGraphic"/>
    </filter>
  </defs>
  <g id="Group_8471" data-name="Group 8471" transform="translate(-188 -173)">
    <g transform="matrix(1, 0, 0, 1, 188, 173)" filter="url(#Ellipse_216)">
      <ellipse id="Ellipse_216-2" data-name="Ellipse 216" cx="184.5" cy="12.5" rx="184.5" ry="12.5" transform="translate(9 365)" fill="#f7a823" opacity="0.1"/>
    </g>
    <g id="Group_8188" data-name="Group 8188" transform="translate(-825.919 -487.383)">
      <g id="Estate_planning" data-name="Estate planning" transform="translate(1022.913 660.383)">
        <g id="Group_8154" data-name="Group 8154" transform="translate(108.522 0)">
          <g id="Group_8147" data-name="Group 8147" transform="translate(0)">
            <g id="Group_8139" data-name="Group 8139">
              <g id="Group_8135" data-name="Group 8135" transform="translate(0 41.839)">
                <g id="Group_8133" data-name="Group 8133" transform="translate(0 1.528)">
                  <path id="Path_1357" data-name="Path 1357" d="M574.97,736.176H751.485c4.856,0,8.8-3.257,8.807-7.275l.441-203.55c-.115-5.452-3.281-8.552-8.762-8.552l-177.247-.6a8.246,8.246,0,0,0-8.066,6.818L566.195,728.9C566.186,732.919,570.114,736.176,574.97,736.176Z" transform="translate(-565.688 -516.198)"/>
                  <path id="Path_1358" data-name="Path 1358" d="M749.895,735.2H573.155a10.122,10.122,0,0,1-6.533-2.265,6.951,6.951,0,0,1-2.636-5.347l.463-206.312a.264.264,0,0,1,.005-.052c.742-3.765,4.6-6.5,9.184-6.5H750.381c5.7,0,9.037,3.238,9.156,8.885L759.1,727.589C759.087,731.786,754.96,735.2,749.895,735.2ZM565.214,521.3l-.463,206.286a6.359,6.359,0,0,0,2.413,4.892,9.281,9.281,0,0,0,5.991,2.076h176.74c4.643,0,8.428-3.127,8.436-6.97l.441-203.972c-.112-5.317-3.092-8.248-8.391-8.248H573.638C569.445,515.368,565.907,517.863,565.214,521.3Z" transform="translate(-563.986 -514.673)"/>
                </g>
                <g id="Group_8134" data-name="Group 8134" transform="translate(11.651 0)">
                  <path id="Path_1359" data-name="Path 1359" d="M625.749,732.231H802.313c4.857,0,8.8-3.291,8.816-7.351l.6-205.67c-.111-5.509-3.276-8.641-8.758-8.641H626.408c-4.365,0-8.093,2.663-8.8,6.281l-.628,208.03C616.966,728.94,620.893,732.231,625.749,732.231Z" transform="translate(-616.471 -510.021)" fill="#fff"/>
                  <path id="Path_1360" data-name="Path 1360" d="M800.723,731.12H623.934a10.063,10.063,0,0,1-6.514-2.272,7.042,7.042,0,0,1-2.652-5.418l.629-208.453a.288.288,0,0,1,0-.052c.745-3.8,4.611-6.564,9.192-6.564H801.385c5.7,0,9.037,3.271,9.152,8.975l-.605,206.1C809.92,727.672,805.788,731.12,800.723,731.12ZM616.163,515.005l-.629,208.427a6.447,6.447,0,0,0,2.428,4.96,9.225,9.225,0,0,0,5.972,2.083H800.723c4.645,0,8.433-3.16,8.444-7.044l.605-206.089c-.108-5.373-3.086-8.335-8.387-8.335H624.594C620.4,509.007,616.859,511.528,616.163,515.005Z" transform="translate(-614.769 -508.362)"/>
                </g>
                <path id="Path_1362" data-name="Path 1362" d="M619.365,519.4a.235.235,0,0,1-.08-.014.6.6,0,0,1-.27-.657c.912-6.1,4.416-10.366,8.522-10.366H773.012c.2,0,.359.246.359.549s-.161.549-.359.549H627.537c-3.769,0-6.986,3.912-7.822,9.513C619.677,519.227,619.529,519.4,619.365,519.4Z" transform="translate(-607.199 -508.362)"/>
              </g>
              <g id="Group_8138" data-name="Group 8138" transform="translate(49.168)">
                <g id="Group_8136" data-name="Group 8136" transform="translate(0 30.831)">
                  <path id="Path_1363" data-name="Path 1363" d="M941.332,504.334h108.9a5.294,5.294,0,0,0,5.092-5.46l.063-27.146a5.265,5.265,0,0,0-5.067-5.46H941.42a5.3,5.3,0,0,0-5.092,5.46l-.063,27.146A5.265,5.265,0,0,0,941.332,504.334Z" transform="translate(-935.758 -465.719)" fill="#fff"/>
                  <path id="Path_1364" data-name="Path 1364" d="M1048.532,503.222H939.63a5.345,5.345,0,0,1-3.96-1.775,6.2,6.2,0,0,1-1.613-4.235l.063-27.147a5.83,5.83,0,0,1,5.6-6.007h108.9a5.347,5.347,0,0,1,3.96,1.775,6.2,6.2,0,0,1,1.613,4.235l-.063,27.147A5.83,5.83,0,0,1,1048.532,503.222ZM939.719,465.156a4.771,4.771,0,0,0-4.585,4.913l-.063,27.147a5.057,5.057,0,0,0,1.317,3.457,4.378,4.378,0,0,0,3.243,1.453h108.9a4.771,4.771,0,0,0,4.585-4.912l.064-27.147a5.06,5.06,0,0,0-1.318-3.457,4.38,4.38,0,0,0-3.243-1.453Z" transform="translate(-934.057 -464.059)"/>
                </g>
                <g id="Group_8137" data-name="Group 8137" transform="translate(39.15)">
                  <path id="Path_1365" data-name="Path 1365" d="M1127.376,342.182c-11.258,0-20.362,9.81-20.391,21.911l-.076,32.839a5.154,5.154,0,0,0,4.96,5.345H1142.6a5.183,5.183,0,0,0,4.985-5.345l.076-32.839C1147.694,351.992,1138.634,342.182,1127.376,342.182Zm1.067,30.01c-5.419.734-9.963-4.163-9.266-9.985a8.655,8.655,0,0,1,7.155-7.671c5.419-.733,9.962,4.163,9.266,9.985A8.655,8.655,0,0,1,1128.443,372.192Z" transform="translate(-1106.402 -341.633)" fill="#fff"/>
                  <path id="Path_1366" data-name="Path 1366" d="M1140.9,401.165h-30.734a5.246,5.246,0,0,1-3.885-1.741,6.078,6.078,0,0,1-1.582-4.154l.076-32.839c.029-12.383,9.4-22.458,20.9-22.458a19.937,19.937,0,0,1,14.768,6.614,23.184,23.184,0,0,1,6.027,15.847l-.076,32.839A5.719,5.719,0,0,1,1140.9,401.165Zm-15.228-60.095c-10.937,0-19.857,9.584-19.884,21.364l-.077,32.839a4.941,4.941,0,0,0,1.287,3.376,4.274,4.274,0,0,0,3.167,1.419H1140.9a4.66,4.66,0,0,0,4.478-4.8l.076-32.839a22.046,22.046,0,0,0-5.732-15.069A18.97,18.97,0,0,0,1125.675,341.071Zm-.008,30.083a8.426,8.426,0,0,1-6.238-2.8,9.863,9.863,0,0,1-2.455-7.879,9.224,9.224,0,0,1,7.594-8.144,8.39,8.39,0,0,1,7.375,2.721,9.866,9.866,0,0,1,2.456,7.878,9.225,9.225,0,0,1-7.594,8.145A8.5,8.5,0,0,1,1125.666,371.154Zm1.076-.621h0Zm-1.039-17.18a7.564,7.564,0,0,0-1.009.068,8.155,8.155,0,0,0-6.716,7.2,8.719,8.719,0,0,0,2.169,6.963,7.437,7.437,0,0,0,6.532,2.407,8.153,8.153,0,0,0,6.715-7.2,8.719,8.719,0,0,0-2.169-6.963A7.459,7.459,0,0,0,1125.7,353.353Z" transform="translate(-1104.701 -339.973)"/>
                </g>
              </g>
            </g>
            <g id="Group_8146" data-name="Group 8146" transform="translate(37.02 83.845)">
              <g id="Group_8144" data-name="Group 8144" transform="translate(0 0)">
                <g id="Group_8140" data-name="Group 8140" transform="translate(0.348)">
                  <path id="Path_1367" data-name="Path 1367" d="M751.492,832.587H731.814a4.751,4.751,0,0,1-3.518-1.577,5.507,5.507,0,0,1-1.433-3.763l.049-21.151a5.18,5.18,0,0,1,4.974-5.337h19.678a4.752,4.752,0,0,1,3.519,1.577,5.508,5.508,0,0,1,1.433,3.763l-.049,21.151A5.18,5.18,0,0,1,751.492,832.587Zm-19.607-30.731a4.12,4.12,0,0,0-3.96,4.242l-.049,21.151a4.366,4.366,0,0,0,1.138,2.985,3.78,3.78,0,0,0,2.8,1.254h19.678a4.121,4.121,0,0,0,3.961-4.243L755.5,806.1a4.367,4.367,0,0,0-1.137-2.985,3.783,3.783,0,0,0-2.8-1.255Z" transform="translate(-726.863 -800.759)"/>
                  <path id="Path_1368" data-name="Path 1368" d="M765.6,847.278a1.5,1.5,0,0,1-.3-.031,1.575,1.575,0,0,1-1.183-1.123l-3.4-9.593a.564.564,0,0,1,.291-.709.5.5,0,0,1,.655.316l3.408,9.619a.553.553,0,0,0,.418.412.513.513,0,0,0,.5-.18l9.494-16.224a.484.484,0,0,1,.7-.17.576.576,0,0,1,.157.757l-9.514,16.259a.51.51,0,0,1-.038.057A1.493,1.493,0,0,1,765.6,847.278Z" transform="translate(-752.922 -822.366)"/>
                </g>
                <g id="Group_8141" data-name="Group 8141" transform="translate(0.124 54.27)">
                  <path id="Path_1369" data-name="Path 1369" d="M750.519,1051.008H730.841a4.749,4.749,0,0,1-3.518-1.577,5.507,5.507,0,0,1-1.434-3.763l.049-21.152a5.18,5.18,0,0,1,4.974-5.337H750.59a4.75,4.75,0,0,1,3.518,1.577,5.506,5.506,0,0,1,1.434,3.763l-.049,21.151A5.18,5.18,0,0,1,750.519,1051.008Zm-19.607-30.731a4.121,4.121,0,0,0-3.961,4.243l-.049,21.151a4.368,4.368,0,0,0,1.137,2.985,3.783,3.783,0,0,0,2.8,1.255h19.678a4.121,4.121,0,0,0,3.961-4.243l.049-21.152a4.368,4.368,0,0,0-1.138-2.985,3.783,3.783,0,0,0-2.8-1.254Z" transform="translate(-725.889 -1019.179)"/>
                  <path id="Path_1370" data-name="Path 1370" d="M764.626,1065.7a1.49,1.49,0,0,1-.3-.031,1.574,1.574,0,0,1-1.183-1.122l-3.4-9.593a.564.564,0,0,1,.291-.709.5.5,0,0,1,.655.316l3.408,9.618a.554.554,0,0,0,.418.412.51.51,0,0,0,.505-.18l9.493-16.223a.484.484,0,0,1,.7-.17.576.576,0,0,1,.157.757l-9.514,16.259a.569.569,0,0,1-.038.058A1.5,1.5,0,0,1,764.626,1065.7Z" transform="translate(-751.949 -1040.786)"/>
                </g>
                <g id="Group_8142" data-name="Group 8142" transform="translate(0 107.267)">
                  <path id="Path_1371" data-name="Path 1371" d="M749.977,1264.3H730.3a4.751,4.751,0,0,1-3.518-1.577,5.506,5.506,0,0,1-1.433-3.763l.049-21.151a5.18,5.18,0,0,1,4.974-5.337h19.678a4.752,4.752,0,0,1,3.518,1.577A5.507,5.507,0,0,1,755,1237.81l-.049,21.151A5.18,5.18,0,0,1,749.977,1264.3Zm-19.607-30.732a4.121,4.121,0,0,0-3.961,4.243l-.049,21.151a4.366,4.366,0,0,0,1.138,2.985,3.782,3.782,0,0,0,2.8,1.255h19.678a4.121,4.121,0,0,0,3.961-4.242l.049-21.152a4.369,4.369,0,0,0-1.137-2.986,3.783,3.783,0,0,0-2.8-1.254Z" transform="translate(-725.347 -1232.47)"/>
                </g>
              </g>
              <g id="Group_8145" data-name="Group 8145" transform="translate(38.923 0.133)">
                <path id="Path_1375" data-name="Path 1375" d="M1017.959,858.884H926.991a2.34,2.34,0,0,1-1.917-1.485,7.67,7.67,0,0,1-.781-3.544c0-2.771,1.219-5.026,2.71-5.026h90.968a2.34,2.34,0,0,1,1.917,1.485,7.669,7.669,0,0,1,.781,3.544C1020.665,856.63,1019.45,858.884,1017.959,858.884ZM927,849.927c-1.168,0-2.121,1.764-2.124,3.932a5.982,5.982,0,0,0,.61,2.765,1.831,1.831,0,0,0,1.5,1.163h90.968c1.168,0,2.121-1.763,2.124-3.931a5.98,5.98,0,0,0-.61-2.766,1.832,1.832,0,0,0-1.5-1.162Z" transform="translate(-924.293 -848.83)"/>
                <path id="Path_1376" data-name="Path 1376" d="M1032.153,951.807H927.761a3.178,3.178,0,0,1-2.562-1.485,6.121,6.121,0,0,1-1.044-3.543c0-2.771,1.63-5.026,3.622-5.026h104.392a3.177,3.177,0,0,1,2.562,1.485,6.118,6.118,0,0,1,1.044,3.544C1035.769,949.552,1034.145,951.807,1032.153,951.807Zm-104.376-8.956c-1.561,0-2.834,1.763-2.838,3.931a4.775,4.775,0,0,0,.815,2.765,2.488,2.488,0,0,0,2.007,1.163h104.392c1.561,0,2.834-1.763,2.839-3.931a4.78,4.78,0,0,0-.815-2.766,2.489,2.489,0,0,0-2.007-1.162Z" transform="translate(-924.155 -918.665)"/>
                <path id="Path_1378" data-name="Path 1378" d="M1011.646,1170.1H929.712a4.474,4.474,0,0,1-3.313-1.485,5.186,5.186,0,0,1-1.35-3.543,4.878,4.878,0,0,1,4.683-5.026h81.934a4.473,4.473,0,0,1,3.313,1.485,5.185,5.185,0,0,1,1.35,3.544A4.878,4.878,0,0,1,1011.646,1170.1Zm-81.914-8.957a3.818,3.818,0,0,0-3.67,3.931,4.046,4.046,0,0,0,1.054,2.765,3.5,3.5,0,0,0,2.6,1.162h81.934a3.819,3.819,0,0,0,3.67-3.931,4.045,4.045,0,0,0-1.054-2.765,3.5,3.5,0,0,0-2.6-1.163Z" transform="translate(-924.844 -1095.839)"/>
                <path id="Path_1379" data-name="Path 1379" d="M1038.327,1287.576H926.54a2.881,2.881,0,0,1-2.355-1.485,6.507,6.507,0,0,1-.96-3.544c0-2.771,1.5-5.026,3.33-5.026h111.787a2.88,2.88,0,0,1,2.356,1.485,6.512,6.512,0,0,1,.959,3.544C1041.653,1285.321,1040.159,1287.576,1038.327,1287.576Zm-111.772-8.958c-1.435,0-2.606,1.763-2.61,3.932a5.082,5.082,0,0,0,.75,2.766,2.255,2.255,0,0,0,1.845,1.162h111.787c1.435,0,2.606-1.763,2.609-3.931a5.079,5.079,0,0,0-.749-2.765,2.257,2.257,0,0,0-1.846-1.163Z" transform="translate(-923.02 -1169.691)"/>
                <path id="Path_1380" data-name="Path 1380" d="M1016.137,1380.5H926.194a2.684,2.684,0,0,1-2.207-1.485,6.843,6.843,0,0,1-.9-3.544c0-2.771,1.4-5.026,3.121-5.026h89.943a2.686,2.686,0,0,1,2.208,1.485,6.848,6.848,0,0,1,.9,3.544C1019.254,1378.245,1017.853,1380.5,1016.137,1380.5Zm-89.929-8.957c-1.345,0-2.442,1.764-2.446,3.931a5.338,5.338,0,0,0,.7,2.765,2.1,2.1,0,0,0,1.729,1.163h89.943c1.345,0,2.442-1.763,2.445-3.931a5.34,5.34,0,0,0-.7-2.765,2.1,2.1,0,0,0-1.73-1.163Z" transform="translate(-922.882 -1242.121)"/>
              </g>
            </g>
          </g>
          <g id="Group_8153" data-name="Group 8153" transform="translate(132.007 126.093)">
            <path id="Path_1385" data-name="Path 1385" d="M1736.678,517.359l-109.352.357a4.345,4.345,0,0,1-4.542-4.449V343.914a6.676,6.676,0,0,1,6.437-6.348l109.352-.357a4.346,4.346,0,0,1,4.542,4.449V511.011A6.676,6.676,0,0,1,1736.678,517.359Z" transform="translate(-1618.964 -336.659)" fill="#fff"/>
            <g id="Group_8152" data-name="Group 8152" transform="translate(0 7.718)">
              <g id="Group_8151" data-name="Group 8151">
                <g id="Group_8148" data-name="Group 8148">
                  <ellipse id="Ellipse_206" data-name="Ellipse 206" cx="49.187" cy="46.683" rx="49.187" ry="46.683" transform="translate(0 41.288) rotate(-24.816)" fill="#fff"/>
                  <path id="Path_1386" data-name="Path 1386" d="M1706.674,523.105a48.207,48.207,0,0,1-28.573-9.217,44.9,44.9,0,0,1-18.19-30.149c-3.693-25.88,15.207-50.677,42.132-55.279a48.87,48.87,0,0,1,37.371,8.463,44.9,44.9,0,0,1,18.191,30.149c3.693,25.88-15.207,50.677-42.131,55.279A52.2,52.2,0,0,1,1706.674,523.105Zm4.164-94.3a51.08,51.08,0,0,0-8.611.737c-26.345,4.5-44.84,28.747-41.23,54.043A43.809,43.809,0,0,0,1678.748,513a47.782,47.782,0,0,0,36.54,8.269c26.344-4.5,44.84-28.747,41.23-54.043a43.812,43.812,0,0,0-17.751-29.418A47.124,47.124,0,0,0,1710.839,428.8Z" transform="translate(-1645.52 -412.389)"/>
                </g>
                <g id="Group_8149" data-name="Group 8149" transform="translate(63.566 28.446)">
                  <path id="Path_1387" data-name="Path 1387" d="M1861.426,516.814l31.086,34.151c11.862-10.539,18.437-26.242,16.13-42.407a44.239,44.239,0,0,0-13.223-25.8Z" transform="translate(-1860.877 -482.208)" fill="#fff"/>
                  <path id="Path_1388" data-name="Path 1388" d="M1890.853,549.853a.549.549,0,0,1-.406-.18l-31.086-34.152a.548.548,0,0,1,.017-.757l33.991-34.057a.547.547,0,0,1,.769-.008,44.638,44.638,0,0,1,13.386,26.12c2.253,15.786-3.844,31.821-16.308,42.9A.546.546,0,0,1,1890.853,549.853Zm-30.328-34.682,30.366,33.362c11.916-10.814,17.724-26.308,15.548-41.557a43.54,43.54,0,0,0-12.675-25.109Z" transform="translate(-1859.218 -480.546)"/>
                </g>
                <path id="Path_1389" data-name="Path 1389" d="M1864.393,430.319l-2.967,47.086,34-34.046A47.5,47.5,0,0,0,1864.393,430.319Z" transform="translate(-1797.311 -414.353)"/>
                <g id="Group_8150" data-name="Group 8150" transform="translate(43.664 43.814)">
                  <ellipse id="Ellipse_207" data-name="Ellipse 207" cx="14.989" cy="14.226" rx="14.989" ry="14.226" transform="matrix(0.908, -0.42, 0.42, 0.908, 0, 12.581)" fill="#fff"/>
                  <path id="Path_1390" data-name="Path 1390" d="M1810.662,589.477a15.068,15.068,0,0,1-8.93-2.882,14.06,14.06,0,0,1-5.7-9.441c-1.154-8.089,4.745-15.839,13.152-17.275a15.265,15.265,0,0,1,11.677,2.647,14.06,14.06,0,0,1,5.7,9.442c1.155,8.089-4.745,15.839-13.152,17.275A16.25,16.25,0,0,1,1810.662,589.477Zm1.269-28.736a15.242,15.242,0,0,0-2.559.219c-7.826,1.338-13.321,8.533-12.25,16.038a12.972,12.972,0,0,0,5.256,8.71,14.19,14.19,0,0,0,10.845,2.452c7.826-1.338,13.322-8.533,12.25-16.038a12.973,12.973,0,0,0-5.256-8.71A13.979,13.979,0,0,0,1811.931,560.741Z" transform="translate(-1791.723 -555.358)"/>
                </g>
              </g>
              <path id="Path_1391" data-name="Path 1391" d="M1765.438,862.4l-91.694,1.372a1.612,1.612,0,0,1-1.641-1.663l.165-6.73a1.722,1.722,0,0,1,1.683-1.673l91.694-1.372a1.611,1.611,0,0,1,1.641,1.663l-.165,6.73A1.721,1.721,0,0,1,1765.438,862.4Z" transform="translate(-1655.028 -731.509)"/>
              <path id="Path_1392" data-name="Path 1392" d="M1765.052,937.59l-93.01,1.392a.974.974,0,0,1-.991-1.005l.2-8.051a1.039,1.039,0,0,1,1.016-1.01l93.01-1.392a.973.973,0,0,1,.991,1.005l-.2,8.051A1.04,1.04,0,0,1,1765.052,937.59Z" transform="translate(-1654.237 -788.018)"/>
            </g>
            <path id="Path_1393" data-name="Path 1393" d="M1624.842,516.606a5.11,5.11,0,0,1-3.651-1.439,4.969,4.969,0,0,1-1.422-3.559l-.2-63.159a.545.545,0,0,1-.064-.259l.267-105.936a7.232,7.232,0,0,1,6.984-6.9L1736.106,335h.02a5.11,5.11,0,0,1,3.651,1.439A4.97,4.97,0,0,1,1741.2,340V509.352a7.232,7.232,0,0,1-6.984,6.9l-109.352.357Zm-4.238-70.02a.548.548,0,0,1,.055.238l.208,64.782a3.881,3.881,0,0,0,1.1,2.783,4.022,4.022,0,0,0,2.876,1.119h.016l109.352-.358a6.091,6.091,0,0,0,5.891-5.8V340a3.878,3.878,0,0,0-1.1-2.781,4.021,4.021,0,0,0-2.876-1.119h-.016l-109.352.357a6.091,6.091,0,0,0-5.89,5.8Z" transform="translate(-1616.498 -335)"/>
          </g>
        </g>
        <g id="Group_8186" data-name="Group 8186" transform="translate(0 68.622)">
          <g id="Group_8178" data-name="Group 8178" transform="translate(12.683 149.718)">
            <g id="Group_8174" data-name="Group 8174" transform="translate(8.098 124.124)">
              <path id="Path_1415" data-name="Path 1415" d="M420.01,2017.446l1.288,12.267,8.295.973V2016.14Z" transform="translate(-419.461 -2015.591)" fill="#fff"/>
              <path id="Path_1416" data-name="Path 1416" d="M427.933,2029.574a.518.518,0,0,1-.064,0l-8.295-.973a.549.549,0,0,1-.482-.488l-1.288-12.268a.55.55,0,0,1,.472-.6l9.582-1.306a.549.549,0,0,1,.623.544v14.546a.549.549,0,0,1-.549.549Zm-7.795-2.015,7.246.85v-13.3l-8.432,1.149Z" transform="translate(-417.802 -2013.931)"/>
            </g>
            <g id="Group_8175" data-name="Group 8175" transform="translate(0 132.053)">
              <path id="Path_1417" data-name="Path 1417" d="M406.4,2076.021a57.953,57.953,0,0,1-15.78-.007,3.707,3.707,0,0,1-3.1-4.554c1.465-5.957,3.99-17.253,8.323-22.489l1.076,2.84,1.487-2.674a1.316,1.316,0,0,1,.985-.666l3.256-.413a1.317,1.317,0,0,1,1.454,1.035l.518,2.463,1.135-3.233,3.788,23.546A3.7,3.7,0,0,1,406.4,2076.021Z" transform="translate(-386.864 -2047.5)" fill="#fff"/>
              <path id="Path_1418" data-name="Path 1418" d="M396.906,2075.448a58.4,58.4,0,0,1-8.015-.549,4.255,4.255,0,0,1-3.558-5.229l.314-1.285c1.5-6.151,4-16.445,8.119-21.422a.549.549,0,0,1,.936.155l.658,1.735.913-1.642a1.871,1.871,0,0,1,1.4-.944l3.256-.413a1.876,1.876,0,0,1,2.06,1.466l.114.542.485-1.382a.549.549,0,0,1,1.059.094l3.788,23.547a4.263,4.263,0,0,1-3.608,4.783h0A57.211,57.211,0,0,1,396.906,2075.448Zm7.84-1.085h0Zm-10.722-25.937c-3.616,5.031-5.911,14.465-7.311,20.219l-.314,1.287a3.11,3.11,0,0,0,.452,2.52,3.177,3.177,0,0,0,2.191,1.36,57.351,57.351,0,0,0,15.628.007,3.159,3.159,0,0,0,2.675-3.537l-3.442-21.4-.419,1.194a.563.563,0,0,1-.553.366.549.549,0,0,1-.5-.435l-.518-2.464a.771.771,0,0,0-.848-.6l-3.256.413a.769.769,0,0,0-.574.388l-1.487,2.674a.549.549,0,0,1-.993-.073Z" transform="translate(-385.21 -2045.842)"/>
            </g>
            <path id="Path_1419" data-name="Path 1419" d="M402.679,2141.9a31.673,31.673,0,0,1-7.005-.741.549.549,0,0,1,.244-1.07c8.105,1.848,16.6-.528,16.685-.553a.549.549,0,0,1,.3,1.056A40.8,40.8,0,0,1,402.679,2141.9Z" transform="translate(-392.753 -1984.189)"/>
            <path id="Path_1420" data-name="Path 1420" d="M415.532,2108.3a.549.549,0,0,1-.018-1.1l7.775-.257a.539.539,0,0,1,.567.53.549.549,0,0,1-.53.567l-7.775.256Z" transform="translate(-407.586 -1959.713)"/>
            <g id="Group_8176" data-name="Group 8176" transform="translate(46.949 118.899)">
              <path id="Path_1421" data-name="Path 1421" d="M576.372,1995.108l1.243,17.9H587.6l.464-17.9Z" transform="translate(-575.823 -1994.559)" fill="#fff"/>
              <path id="Path_1422" data-name="Path 1422" d="M585.936,2011.9h-9.981a.548.548,0,0,1-.547-.51l-1.243-17.9a.549.549,0,0,1,.547-.587H586.4a.548.548,0,0,1,.548.563l-.464,17.9A.548.548,0,0,1,585.936,2011.9Zm-9.469-1.1H585.4l.435-16.8H575.3Z" transform="translate(-574.164 -1992.9)"/>
            </g>
            <g id="Group_8177" data-name="Group 8177" transform="translate(45.584 128.781)">
              <path id="Path_1423" data-name="Path 1423" d="M570.879,2053a3.6,3.6,0,0,0,2.782,3.564c5.738,1.336,18.664,4.309,22.351,4.858,4.785.712,10.666-.754,13.195-3.552s-5.662-9.482-9.549-11.914c-5.774-3.612-11.321-10.751-13.647-11.073s-6.668,6.427-6.668,6.427l-7.1-2.981A87.883,87.883,0,0,0,570.879,2053Z" transform="translate(-570.33 -2034.325)" fill="#fff"/>
              <path id="Path_1424" data-name="Path 1424" d="M596.852,2060.5a17.569,17.569,0,0,1-2.582-.185c-3.719-.553-16.9-3.588-22.394-4.866a4.175,4.175,0,0,1-3.206-4.107,89.426,89.426,0,0,1,1.375-14.773.549.549,0,0,1,.75-.4l6.677,2.8c1.146-1.724,4.629-6.6,6.952-6.287,1.341.185,3.233,1.98,5.852,4.465a54.493,54.493,0,0,0,8.012,6.685c3.132,1.959,9.758,7.148,10.251,10.682a2.437,2.437,0,0,1-.586,2.064C605.805,2058.963,601.261,2060.5,596.852,2060.5ZM571,2037.445a92.136,92.136,0,0,0-1.232,13.909,3.07,3.07,0,0,0,2.357,3.022c5.481,1.276,18.627,4.3,22.306,4.849,4.773.71,10.354-.774,12.707-3.377a1.373,1.373,0,0,0,.314-1.178c-.379-2.72-5.9-7.5-9.746-9.9a55.277,55.277,0,0,1-8.185-6.82c-2.188-2.076-4.255-4.037-5.247-4.174-1.357-.168-4.407,3.5-6.132,6.18a.548.548,0,0,1-.674.209Zm-1.781,13.9h0Z" transform="translate(-568.67 -2032.672)"/>
            </g>
            <path id="Path_1425" data-name="Path 1425" d="M604.644,2110.221c-10.4,0-24.349-5.636-25.137-5.957a.549.549,0,0,1,.415-1.017c.254.1,25.485,10.3,32.887,3.615a.549.549,0,1,1,.735.815C611.493,2109.529,608.285,2110.221,604.644,2110.221Z" transform="translate(-530.974 -1956.9)"/>
            <path id="Path_1426" data-name="Path 1426" d="M635.52,2070.626a.548.548,0,0,1-.368-.956l5.077-4.579a.549.549,0,0,1,.735.815l-5.076,4.579A.55.55,0,0,1,635.52,2070.626Z" transform="translate(-572.913 -1928.15)"/>
            <path id="Path_1427" data-name="Path 1427" d="M393.454,1517.116s-3.093,55.964-4.711,75.282,3.785,50.374,3.785,50.374l15.406-.81s1.056-37.758,2.2-48.243c0,0,6.508-14.215,8.436-26.892s8.5-32.7,8.5-32.7,5.336,99.945,5.85,107.8c0,0,12.081.538,16.412-2.187,0,0,7.674-36.443,6.572-56.271s.108-69.091.108-69.091Z" transform="translate(-387.638 -1514.374)"/>
            <path id="Path_1428" data-name="Path 1428" d="M448.43,1832.587h-4.709a.549.549,0,0,1,0-1.1h4.709a.549.549,0,0,1,0,1.1Z" transform="translate(-428.77 -1752.696)" fill="#fff"/>
            <path id="Path_1429" data-name="Path 1429" d="M597.682,1870.138h-.01a.549.549,0,0,1-.539-.559c.169-9.257,10.321-25.839,10.752-26.54a.549.549,0,1,1,.934.576c-.1.169-10.426,17.027-10.589,25.985A.549.549,0,0,1,597.682,1870.138Z" transform="translate(-544.477 -1761.18)" fill="#fff"/>
          </g>
          <g id="Group_8182" data-name="Group 8182" transform="translate(0 35.606)">
            <g id="Group_8179" data-name="Group 8179" transform="translate(78.928)">
              <path id="Path_1430" data-name="Path 1430" d="M660.486,1084.121c1.122-.088,6.627,11.186,23.855,10.714s31.05-19.75,31.05-19.75,5.95-10.033,10.465-13.66,5.224-4.106,5.224-4.106a3.679,3.679,0,0,1,0,4.106,64.506,64.506,0,0,1-5.324,6.372,5.723,5.723,0,0,1,2.364,7.288c-2.233,5.663-8.527,5.208-8.527,5.208s-12.774,56.552-65.563,29.679Z" transform="translate(-653.48 -1056.771)" fill="#fff"/>
              <path id="Path_1431" data-name="Path 1431" d="M678.548,1116.106c-8.03,0-16.866-2.438-26.427-7.3a.549.549,0,0,1-.283-.622l6.457-25.85a.55.55,0,0,1,.49-.414c.508-.041.875.377,1.776,1.381,2.6,2.9,8.691,9.708,22.108,9.332,16.753-.459,30.482-19.331,30.619-19.521.219-.373,6.027-10.12,10.567-13.767,4.481-3.6,5.23-4.113,5.26-4.133a.551.551,0,0,1,.746.125,4.2,4.2,0,0,1,.024,4.73,57.292,57.292,0,0,1-4.952,5.985,6.186,6.186,0,0,1,2.04,7.581c-1.988,5.041-7.046,5.532-8.61,5.56-.869,3.364-7.163,25.361-24.881,33.679A34.725,34.725,0,0,1,678.548,1116.106Zm-25.54-8.086c15.44,7.769,28.895,9.065,40,3.855,18.626-8.739,24.334-33.117,24.39-33.363a.554.554,0,0,1,.574-.426c.242.016,5.924.348,7.979-4.862a5.125,5.125,0,0,0-2.117-6.6.549.549,0,0,1-.136-.858,64.407,64.407,0,0,0,5.261-6.291,3.119,3.119,0,0,0,.287-3c-.612.466-1.94,1.5-4.7,3.719-4.387,3.524-10.278,13.413-10.337,13.512-.166.235-14.207,19.545-31.507,20.019-.364.01-.724.015-1.077.015-13.171,0-19.244-6.774-21.877-9.711-.195-.217-.4-.448-.581-.638Zm5.718-25.031Z" transform="translate(-651.821 -1055.112)"/>
            </g>
            <g id="Group_8180" data-name="Group 8180" transform="translate(0 4.916)">
              <path id="Path_1432" data-name="Path 1432" d="M336.372,1124.932s5.17-33.369,23.435-41.579,42.976-7.069,49.789-2.969,24.574,22.638,24.574,22.638l-15.694,21.91s3.587,58.979.751,74.55c0,0-17.459,2.036-24.863-.88s-31.752-7-43.391-1.655l2.115-74.672Z" transform="translate(-335.823 -1076.648)" fill="#fff"/>
              <path id="Path_1433" data-name="Path 1433" d="M405.25,1198.98c-4.647,0-9.565-.365-12.747-1.617-7.28-2.868-31.349-7-42.961-1.667a.549.549,0,0,1-.778-.514l2.1-74.01-16.063,2.553a.539.539,0,0,1-.473-.153.549.549,0,0,1-.155-.473c.213-1.374,5.426-33.758,23.752-41.995,18.023-8.1,42.937-7.368,50.3-2.938,6.8,4.09,23.96,21.969,24.688,22.728a.548.548,0,0,1,.05.7l-15.581,21.752c.223,3.753,3.465,59.477.731,74.488a.549.549,0,0,1-.477.446A118.926,118.926,0,0,1,405.25,1198.98Zm-40.117-6.939c11.054,0,22.986,2.415,27.772,4.3,6.575,2.589,21.536,1.169,24.193.89,2.662-15.921-.793-73.432-.829-74.016a.549.549,0,0,1,.1-.353l15.428-21.539c-2.415-2.5-17.967-18.5-24.145-22.219-6.4-3.85-31.029-5.2-49.282,3-16.279,7.317-22.084,35.457-22.988,40.416l15.958-2.536a.549.549,0,0,1,.634.557l-2.091,73.811C354.011,1192.678,359.457,1192.041,365.134,1192.041Z" transform="translate(-334.164 -1074.898)"/>
            </g>
            <path id="Path_1434" data-name="Path 1434" d="M458.046,1421.591a.549.549,0,0,1-.1-1.089c27.746-4.9,35.8-24.078,35.882-24.271a.549.549,0,1,1,1.017.412c-.08.2-8.37,19.932-36.708,24.94A.5.5,0,0,1,458.046,1421.591Z" transform="translate(-426.853 -1311.216)"/>
            <path id="Path_1435" data-name="Path 1435" d="M553.991,1243.011H518.448l11.133-39.7h35.543Z" transform="translate(-472.659 -1166.487)"/>
            <g id="Group_8181" data-name="Group 8181" transform="translate(2.946 44.739)">
              <path id="Path_1436" data-name="Path 1436" d="M348.353,1245.421l17.988-8.041s-2.534,30.479,33.86,16.4a25.938,25.938,0,0,1-1.152-8.491c.19-4.575,2.926-.149,3.31,3.57s8.928,2.209,14.063.744,11.875-.505,0,6.044-14.477,3.628-14.477,3.628-15.165,21.22-34.033,16.712C344.7,1270.446,348.353,1245.421,348.353,1245.421Z" transform="translate(-347.616 -1236.831)" fill="#fff"/>
              <path id="Path_1437" data-name="Path 1437" d="M371.579,1275.5a23.106,23.106,0,0,1-5.392-.636c-23.424-5.6-20.011-30.927-19.974-31.182a.549.549,0,0,1,.319-.422l17.988-8.041a.549.549,0,0,1,.771.546c-.009.111-.826,11.134,6.389,16.526,5.575,4.167,14.4,4,26.247-.5a26.587,26.587,0,0,1-1.023-8.185c.025-.6.1-2.44,1.26-2.475h.027c1.451,0,2.866,3.575,3.117,6.012a1.5,1.5,0,0,0,.7,1.137c2.109,1.427,8.14.427,12.665-.865,2.41-.687,6.5-1.133,7.211.6.39.947.11,2.645-6.8,6.455-9.566,5.277-13.348,4.56-14.62,3.9C398.389,1261.072,386.575,1275.5,371.579,1275.5Zm-24.316-31.365a35.092,35.092,0,0,0,1.107,12.715c2.587,9,8.667,14.7,18.072,16.946,18.284,4.365,33.309-16.288,33.458-16.5a.549.549,0,0,1,.856-.045c.012.011,2.674,2.393,13.8-3.745,6.769-3.733,6.333-5.022,6.311-5.075-.244-.593-2.827-.837-5.9.04-2.416.69-10.537,2.779-13.581.718a2.57,2.57,0,0,1-1.178-1.933c-.256-2.485-1.463-4.682-1.972-5a3.4,3.4,0,0,0-.244,1.392,25.6,25.6,0,0,0,1.123,8.291.549.549,0,0,1-.321.69c-12.465,4.82-21.813,5-27.785.531-6.529-4.885-6.918-13.717-6.86-16.582Z" transform="translate(-346.019 -1235.171)"/>
            </g>
          </g>
          <g id="Group_8185" data-name="Group 8185" transform="translate(35.435 0)">
            <g id="Group_8183" data-name="Group 8183">
              <path id="Path_1438" data-name="Path 1438" d="M494.7,945.488c-1.554,1.423-4.591,3.16-6.969,1.963-1.77-.891-2.759-3.2-2.7-5.846a3.547,3.547,0,0,1-2.661-.668c-1.181-1.043-.96-2.963-.913-4.224.213-5.823-3.169-6.716-2.342-10.667a9.393,9.393,0,0,1,3.546-5.3c2.3-1.747,3.863-1.183,7.734-2.2,6.515-1.706,6.723-4.515,11.015-4.528.248,0,6.09.064,8.073,4.1,1.612,3.283-.271,7.272-2.218,9.368-2.522,2.714-4.332,1.373-6.863,3.649C495.961,935.13,499.315,941.262,494.7,945.488Z" transform="translate(-478.438 -913.469)"/>
              <path id="Path_1439" data-name="Path 1439" d="M487.816,946.739a4.38,4.38,0,0,1-1.991-.458c-1.791-.9-2.911-3.081-3-5.767a3.668,3.668,0,0,1-2.478-.827c-1.265-1.118-1.178-2.947-1.115-4.283l.016-.373a10.889,10.889,0,0,0-1.4-5.887,6.741,6.741,0,0,1-.929-4.873,9.816,9.816,0,0,1,3.751-5.626,8.6,8.6,0,0,1,4.56-1.64,28.689,28.689,0,0,0,3.366-.652,18.293,18.293,0,0,0,6.085-2.765,8.259,8.259,0,0,1,5.068-1.78c.263-.005,6.414.025,8.567,4.406,1.655,3.37-.037,7.537-2.309,9.984a6.984,6.984,0,0,1-3.887,2.2,6.315,6.315,0,0,0-3.011,1.486c-2.047,1.841-2.316,4.189-2.6,6.675-.3,2.657-.62,5.405-3.1,7.676A9.179,9.179,0,0,1,487.816,946.739Zm-4.442-7.343a.548.548,0,0,1,.548.562c-.057,2.484.883,4.581,2.4,5.343,2.194,1.107,5.114-.744,6.351-1.877,2.178-1.994,2.456-4.421,2.751-6.991s.6-5.248,2.957-7.367a7.406,7.406,0,0,1,3.466-1.731,5.987,5.987,0,0,0,3.362-1.884c1.69-1.819,3.651-5.651,2.128-8.752-1.846-3.757-7.47-3.793-7.577-3.793h0a7.186,7.186,0,0,0-4.471,1.6,19.491,19.491,0,0,1-6.408,2.909,29.685,29.685,0,0,1-3.485.675,7.529,7.529,0,0,0-4.057,1.428A8.721,8.721,0,0,0,478,924.5a5.705,5.705,0,0,0,.838,4.16,11.984,11.984,0,0,1,1.515,6.414l-.017.385c-.056,1.176-.126,2.64.745,3.409a2.957,2.957,0,0,0,2.253.532Z" transform="translate(-476.779 -911.81)" fill="#fff"/>
            </g>
            <g id="Group_8184" data-name="Group 8184" transform="translate(4.884 9.896)">
              <path id="Path_1440" data-name="Path 1440" d="M522.475,965.03l-.257-.221c-1.289-1.111-2.631-2.4-2.974-4.068-1.455-7.087-7.947-9.661-8.246-3.153-.076,1.643-6.073,1.557-5.361,3.281,1.856,4.494,1.9,3.285-.722,4.941a2.265,2.265,0,0,0-.869.207,3,3,0,0,0-1.062,4.072,3.475,3.475,0,0,0,2.132,1.91v7.1a6.554,6.554,0,0,1-4.074,6.066l-2.4.98s11.18,7.3,22.527-.715l-1.514-.679a7.64,7.64,0,0,1-4.51-6.731l-.012-1.388a5.936,5.936,0,0,0,2.185-.182c3.174-.923,4.228-4.581,3.688-9.127l1.292-.694A.976.976,0,0,0,522.475,965.03Z" transform="translate(-498.095 -953.297)" fill="#fff"/>
              <path id="Path_1441" data-name="Path 1441" d="M508.041,988.052a22.929,22.929,0,0,1-11.356-3.1.549.549,0,0,1,.092-.968l2.4-.98a5.982,5.982,0,0,0,3.733-5.558v-6.712a4.079,4.079,0,0,1-2.08-2.066,4.141,4.141,0,0,1-.29-2.781,2.994,2.994,0,0,1,1.617-2.021,2.763,2.763,0,0,1,.926-.248c.428-.266.779-.453,1.066-.606a2.991,2.991,0,0,0,.614-.377,7.4,7.4,0,0,0-.6-1.581c-.191-.44-.423-.975-.694-1.63a1.162,1.162,0,0,1,.014-.976c.377-.774,1.552-1.1,2.913-1.484.83-.232,2.375-.666,2.393-1.056.168-3.65,2.093-4.193,2.913-4.257,2.335-.183,5.442,2.566,6.419,7.325.312,1.518,1.606,2.738,2.794,3.763l.257.221a1.525,1.525,0,0,1-.274,2.5l-.966.519c.509,5.036-.982,8.432-4.121,9.345a6.013,6.013,0,0,1-1.784.232l.007.806a7.13,7.13,0,0,0,4.186,6.236l1.515.679a.549.549,0,0,1,.092.949A20.1,20.1,0,0,1,508.041,988.052Zm-9.794-3.488c2.816,1.441,11.393,4.916,20.14-.7l-.614-.275a8.237,8.237,0,0,1-4.833-7.215l-.013-1.4a.549.549,0,0,1,.177-.408.542.542,0,0,1,.421-.143,5.379,5.379,0,0,0,1.983-.162c2.647-.77,3.849-3.881,3.3-8.535a.548.548,0,0,1,.285-.548l1.292-.695a.427.427,0,0,0,.077-.7l-.257-.221c-1.326-1.144-2.772-2.518-3.153-4.374-.83-4.042-3.4-6.593-5.258-6.452-1.119.088-1.813,1.259-1.9,3.214-.054,1.182-1.65,1.629-3.193,2.062-.821.23-2.062.577-2.222.908,0,.006-.01.021.013.077.267.648.5,1.177.686,1.612.88,2.028,1.09,2.509-.507,3.362-.3.159-.666.356-1.115.64a.545.545,0,0,1-.271.085,1.725,1.725,0,0,0-.659.155,1.918,1.918,0,0,0-1.02,1.3,3.041,3.041,0,0,0,.223,2.04,2.945,2.945,0,0,0,1.785,1.614.549.549,0,0,1,.4.528v7.1a7.077,7.077,0,0,1-4.414,6.574Z" transform="translate(-496.436 -951.638)"/>
            </g>
            <path id="Path_1442" data-name="Path 1442" d="M544.051,1032.005a.56.56,0,0,1-.084-.006,9.807,9.807,0,0,1-6.775-4.382.548.548,0,0,1,.95-.547,8.861,8.861,0,0,0,5.99,3.844.549.549,0,0,1-.082,1.091Z" transform="translate(-522.127 -998.225)"/>
          </g>
        </g>
      </g>
    </g>
  </g>
</svg>
