<svg xmlns="http://www.w3.org/2000/svg" xmlns:xlink="http://www.w3.org/1999/xlink" width="387" height="402" viewBox="0 0 387 402">
  <defs>
    <filter id="Ellipse_216" x="0" y="359" width="387" height="43" filterUnits="userSpaceOnUse">
      <feOffset dy="3" input="SourceAlpha"/>
      <feGaussianBlur stdDeviation="3" result="blur"/>
      <feFlood flood-color="#f7a823"/>
      <feComposite operator="in" in2="blur"/>
      <feComposite in="SourceGraphic"/>
    </filter>
  </defs>
  <g id="Group_8472" data-name="Group 8472" transform="translate(-188 -173)">
    <g transform="matrix(1, 0, 0, 1, 188, 173)" filter="url(#Ellipse_216)">
      <ellipse id="Ellipse_216-2" data-name="Ellipse 216" cx="184.5" cy="12.5" rx="184.5" ry="12.5" transform="translate(9 365)" fill="#f7a823" opacity="0.1"/>
    </g>
    <g id="Personal_injury_lawyer" data-name="Personal injury lawyer" transform="translate(-101.695 -162)">
      <g id="Group_8211" data-name="Group 8211" transform="translate(299.226 342.341)">
        <g id="Group_8193" data-name="Group 8193" transform="translate(192.054 42.891)">
          <g id="Group_8189" data-name="Group 8189" transform="translate(9.26)">
            <path id="Path_1443" data-name="Path 1443" d="M1493.242,678.435a.473.473,0,0,1-.395-.211l-65.96-99.243-75.66,98.661a.474.474,0,0,1-.752-.576l76.064-99.187a.448.448,0,0,1,.392-.185.474.474,0,0,1,.378.211l66.327,99.8a.474.474,0,0,1-.394.736Z" transform="translate(-1350.378 -577.691)"/>
          </g>
          <g id="Group_8192" data-name="Group 8192" transform="translate(0 94.091)">
            <g id="Group_8190" data-name="Group 8190" transform="translate(0.475 0.474)">
              <path id="Path_1444" data-name="Path 1444" d="M1465.529,1034.566a2.672,2.672,0,0,1,2.506,3.607c-7.3,19.311-40.267,33.718-79.829,33.718-40.208,0-73.6-14.882-80.166-34.668a2.019,2.019,0,0,1,1.914-2.657Z" transform="translate(-1307.936 -1034.566)" fill="#fff"/>
            </g>
            <g id="Group_8191" data-name="Group 8191">
              <path id="Path_1445" data-name="Path 1445" d="M1386.387,1070.549c-39.983,0-73.887-14.716-80.616-34.992a2.493,2.493,0,0,1,2.363-3.281h155.576a3.146,3.146,0,0,1,2.949,4.249c-3.6,9.527-13.574,18.181-28.075,24.368C1423.991,1067.12,1405.453,1070.549,1386.387,1070.549Zm-78.253-37.325a1.545,1.545,0,0,0-1.464,2.034c6.6,19.9,40.13,34.343,79.717,34.343,38.676,0,72.063-14.051,79.386-33.411a2.156,2.156,0,0,0-.248-2.013,2.178,2.178,0,0,0-1.815-.953Z" transform="translate(-1305.64 -1032.277)"/>
            </g>
          </g>
        </g>
        <g id="Group_8198" data-name="Group 8198" transform="translate(0 41.45)">
          <g id="Group_8194" data-name="Group 8194" transform="translate(9.26)">
            <path id="Path_1446" data-name="Path 1446" d="M487.021,671.47a.472.472,0,0,1-.395-.211l-65.961-99.243-75.66,98.661a.474.474,0,1,1-.752-.576l76.063-99.187a.462.462,0,0,1,.392-.185.474.474,0,0,1,.379.211l66.327,99.8a.474.474,0,0,1-.394.736Z" transform="translate(-344.156 -570.727)"/>
          </g>
          <g id="Group_8197" data-name="Group 8197" transform="translate(0 94.09)">
            <g id="Group_8195" data-name="Group 8195" transform="translate(0.475 0.474)">
              <path id="Path_1447" data-name="Path 1447" d="M459.306,1027.6a2.672,2.672,0,0,1,2.506,3.608c-7.3,19.31-40.267,33.718-79.829,33.718-40.209,0-73.6-14.881-80.166-34.668a2.019,2.019,0,0,1,1.914-2.657Z" transform="translate(-301.713 -1027.6)" fill="#fff"/>
            </g>
            <g id="Group_8196" data-name="Group 8196">
              <path id="Path_1448" data-name="Path 1448" d="M380.164,1063.583c-39.983,0-73.887-14.716-80.616-34.992a2.493,2.493,0,0,1,2.363-3.281H457.487a3.146,3.146,0,0,1,2.949,4.249c-3.6,9.527-13.575,18.182-28.075,24.369C417.768,1060.154,399.231,1063.583,380.164,1063.583Zm-78.253-37.326a1.545,1.545,0,0,0-1.464,2.035c6.6,19.9,40.13,34.344,79.716,34.344,38.676,0,72.063-14.052,79.386-33.412a2.157,2.157,0,0,0-.248-2.014,2.179,2.179,0,0,0-1.815-.953Z" transform="translate(-299.419 -1025.31)"/>
            </g>
          </g>
        </g>
        <g id="Group_8201" data-name="Group 8201" transform="translate(176.277 18.872)">
          <g id="Group_8199" data-name="Group 8199" transform="translate(0.474 0.474)">
            <rect id="Rectangle_1632" data-name="Rectangle 1632" width="8.656" height="316.875" fill="#fff"/>
          </g>
          <g id="Group_8200" data-name="Group 8200">
            <path id="Path_1449" data-name="Path 1449" d="M1200.386,779.467h-8.656a.476.476,0,0,1-.474-.479V462.124a.476.476,0,0,1,.474-.479h8.656a.476.476,0,0,1,.474.479V778.989A.476.476,0,0,1,1200.386,779.467Zm-8.182-.958h7.709V462.6H1192.2Z" transform="translate(-1191.257 -461.645)"/>
          </g>
        </g>
        <g id="Group_8204" data-name="Group 8204" transform="translate(72.191 37.577)">
          <g id="Group_8202" data-name="Group 8202" transform="translate(0.474 0.474)">
            <rect id="Rectangle_1633" data-name="Rectangle 1633" width="216.256" height="7.339" fill="#fff"/>
          </g>
          <g id="Group_8203" data-name="Group 8203">
            <path id="Path_1450" data-name="Path 1450" d="M906.49,560.3H690.234a.474.474,0,0,1-.474-.474v-7.339a.474.474,0,0,1,.474-.474H906.49a.473.473,0,0,1,.474.474v7.339A.473.473,0,0,1,906.49,560.3Zm-215.782-.947H906.016v-6.392H690.707Z" transform="translate(-689.76 -552.017)"/>
          </g>
        </g>
        <g id="Group_8205" data-name="Group 8205" transform="translate(269.253 30.478)">
          <circle id="Ellipse_211" data-name="Ellipse 211" cx="9.291" cy="9.291" r="9.291" transform="matrix(0.973, -0.23, 0.23, 0.973, 0, 4.269)"/>
        </g>
        <g id="Group_8206" data-name="Group 8206" transform="translate(67.899 28.515)">
          <circle id="Ellipse_212" data-name="Ellipse 212" cx="9.291" cy="9.291" r="9.291" transform="translate(0 13.14) rotate(-45)"/>
        </g>
        <g id="Group_8207" data-name="Group 8207" transform="translate(167.852 0)">
          <circle id="Ellipse_213" data-name="Ellipse 213" cx="9.291" cy="9.291" r="9.291" transform="translate(0 13.14) rotate(-45)"/>
        </g>
        <g id="Group_8210" data-name="Group 8210" transform="translate(116.868 330.432)">
          <g id="Group_8208" data-name="Group 8208" transform="translate(0.473 0.474)">
            <path id="Path_1451" data-name="Path 1451" d="M908.616,1972.543H1031.6c1.765,0,2.411-2.834.9-3.947l-6.237-4.6a58.133,58.133,0,0,0-34.575-11.75h-44.6a54.758,54.758,0,0,0-33.5,11.827l-5.893,4.54C906.209,1969.756,906.869,1972.543,908.616,1972.543Z" transform="translate(-906.87 -1952.251)" fill="#fff"/>
          </g>
          <g id="Group_8209" data-name="Group 8209">
            <path id="Path_1452" data-name="Path 1452" d="M1029.783,1971.2H906.8a2.2,2.2,0,0,1-2.054-1.62,2.843,2.843,0,0,1,.835-3.154l5.893-4.541a55.155,55.155,0,0,1,33.791-11.926h44.6a58.605,58.605,0,0,1,34.856,11.842l6.237,4.6a2.828,2.828,0,0,1,.883,3.153A2.2,2.2,0,0,1,1029.783,1971.2Zm-84.516-20.292a54.216,54.216,0,0,0-33.213,11.728l-5.893,4.541a1.9,1.9,0,0,0-.516,2.1,1.319,1.319,0,0,0,1.158.978h122.98a1.322,1.322,0,0,0,1.164-1,1.889,1.889,0,0,0-.544-2.095l-6.237-4.595a57.666,57.666,0,0,0-34.295-11.657Z" transform="translate(-904.584 -1949.961)"/>
          </g>
        </g>
      </g>
      <g id="Group_8242" data-name="Group 8242" transform="translate(299.176 335)">
        <g id="Group_8237" data-name="Group 8237" transform="translate(81.303)">
          <g id="Group_8226" data-name="Group 8226" transform="translate(18.19)">
            <path id="Path_1459" data-name="Path 1459" d="M861.886,342.372a3.691,3.691,0,1,1,1.17-.191A3.669,3.669,0,0,1,861.886,342.372Zm0-6.425a2.738,2.738,0,1,0,2.6,1.871A2.737,2.737,0,0,0,861.887,335.947Z" transform="translate(-858.204 -335)"/>
          </g>
          <g id="Group_8231" data-name="Group 8231" transform="translate(0 15.477)">
            <g id="Group_8227" data-name="Group 8227" transform="translate(4.03)">
              <path id="Path_1460" data-name="Path 1460" d="M791.355,414.232a.473.473,0,0,1-.452-.334l-1.089-3.51a.474.474,0,1,1,.9-.28l1.089,3.51a.474.474,0,0,1-.312.593A.481.481,0,0,1,791.355,414.232Z" transform="translate(-789.793 -409.775)"/>
            </g>
            <g id="Group_8228" data-name="Group 8228" transform="translate(6.566 8.176)">
              <path id="Path_1461" data-name="Path 1461" d="M803.61,453.733a.473.473,0,0,1-.452-.333l-1.089-3.51a.474.474,0,0,1,.9-.28l1.089,3.51a.474.474,0,0,1-.453.614Z" transform="translate(-802.048 -449.276)"/>
            </g>
            <g id="Group_8229" data-name="Group 8229" transform="translate(0 6.567)">
              <path id="Path_1462" data-name="Path 1462" d="M770.8,443.536a.474.474,0,0,1-.14-.926l3.51-1.089a.474.474,0,1,1,.281.9l-3.51,1.089A.48.48,0,0,1,770.8,443.536Z" transform="translate(-770.323 -441.5)"/>
            </g>
            <g id="Group_8230" data-name="Group 8230" transform="translate(8.176 4.03)">
              <path id="Path_1463" data-name="Path 1463" d="M810.3,431.281a.474.474,0,0,1-.14-.926l3.51-1.089a.474.474,0,0,1,.281.9l-3.51,1.089A.48.48,0,0,1,810.3,431.281Z" transform="translate(-809.822 -429.245)"/>
            </g>
          </g>
          <g id="Group_8236" data-name="Group 8236" transform="translate(187.267 2.539)">
            <g id="Group_8232" data-name="Group 8232" transform="translate(0 0.415)">
              <path id="Path_1464" data-name="Path 1464" d="M1711.635,369.758a.471.471,0,0,1-.276-.089,155,155,0,0,0-35.979-19.48.474.474,0,1,1,.331-.887,155.931,155.931,0,0,1,36.2,19.6.474.474,0,0,1-.277.858Z" transform="translate(-1675.073 -349.271)"/>
            </g>
            <g id="Group_8233" data-name="Group 8233" transform="translate(43.686 25.711)">
              <path id="Path_1465" data-name="Path 1465" d="M1929.372,518.9a.473.473,0,0,1-.4-.223,209.628,209.628,0,0,0-42.658-46.349.474.474,0,0,1,.591-.74,210.6,210.6,0,0,1,42.87,46.587.474.474,0,0,1-.15.653A.469.469,0,0,1,1929.372,518.9Z" transform="translate(-1886.134 -471.487)"/>
            </g>
            <g id="Group_8234" data-name="Group 8234" transform="translate(18.427)">
              <path id="Path_1466" data-name="Path 1466" d="M1827.875,400.624a.474.474,0,0,1-.382-.192c-.279-.378-28.278-37.956-63.1-52.252a.474.474,0,0,1,.36-.876c35.07,14.4,63.221,52.186,63.5,52.566a.474.474,0,0,1-.381.755Z" transform="translate(-1764.1 -347.267)"/>
            </g>
            <g id="Group_8235" data-name="Group 8235" transform="translate(85.608 73.87)">
              <path id="Path_1467" data-name="Path 1467" d="M2100.45,717.532a.475.475,0,0,1-.164-.029l-11.3-4.161a.473.473,0,0,1-.192-.757l7.274-8.267a.473.473,0,0,1,.806.167l4.025,12.429a.473.473,0,0,1-.45.62Zm-10.488-4.841,9.737,3.586-3.469-10.71Z" transform="translate(-2088.677 -704.157)"/>
            </g>
          </g>
        </g>
        <g id="Group_8241" data-name="Group 8241" transform="translate(0 213.602)">
          <g id="Group_8238" data-name="Group 8238" transform="translate(0 0)">
            <path id="Path_1468" data-name="Path 1468" d="M316.129,1420.073a.473.473,0,0,1-.421-.254,155.027,155.027,0,0,1-16.529-52.3.474.474,0,1,1,.94-.119,154.064,154.064,0,0,0,16.429,51.983.473.473,0,0,1-.42.693Z" transform="translate(-299.176 -1366.985)"/>
          </g>
          <g id="Group_8239" data-name="Group 8239" transform="translate(20.599 59.568)">
            <path id="Path_1469" data-name="Path 1469" d="M403.137,1662.126a.474.474,0,0,1-.4-.216c-1.372-2.108-2.71-4.268-3.976-6.419a.474.474,0,0,1,.816-.481c1.259,2.139,2.59,4.286,3.954,6.384a.474.474,0,0,1-.4.732Z" transform="translate(-398.698 -1654.778)"/>
          </g>
          <g id="Group_8240" data-name="Group 8240" transform="translate(11.353 10.362)">
            <path id="Path_1470" data-name="Path 1470" d="M383.312,1477.889a.473.473,0,0,1-.371-.179,146.147,146.147,0,0,1-28.905-60.09.474.474,0,0,1,.926-.2,145.2,145.2,0,0,0,28.721,59.7.474.474,0,0,1-.371.768Z" transform="translate(-354.025 -1417.045)"/>
          </g>
        </g>
      </g>
      <g id="Group_8330" data-name="Group 8330" transform="translate(461.235 441.323)">
        <g id="Group_8252" data-name="Group 8252" transform="translate(48.442 24.164)">
          <g id="Group_8245" data-name="Group 8245">
            <g id="Group_8243" data-name="Group 8243" transform="translate(0.473 0.474)">
              <path id="Path_1471" data-name="Path 1471" d="M1470.942,975.383v21.49c0,21.017-16.595,38.054-37.066,38.054s-37.065,17.037-37.065,38.054a3.39,3.39,0,0,0,3.388,3.391h98.115c30.688,0,55.566-25.541,55.566-57.048V973.471c0-12.531-9.895-22.69-22.1-22.69h-36.875C1481.671,950.781,1470.942,961.8,1470.942,975.383Z" transform="translate(-1396.811 -950.781)" fill="#fff"/>
            </g>
            <g id="Group_8244" data-name="Group 8244">
              <path id="Path_1472" data-name="Path 1472" d="M1496.5,1075.031h-98.115a3.868,3.868,0,0,1-3.862-3.865c0-21.244,16.84-38.527,37.539-38.527,20.177,0,36.592-16.859,36.592-37.581v-21.49c0-13.826,10.962-25.076,24.437-25.076h36.875c12.447,0,22.574,10.391,22.574,23.164v45.853C1552.541,1049.226,1527.4,1075.031,1496.5,1075.031Zm-3.409-125.59c-12.952,0-23.489,10.824-23.489,24.128v21.49c0,21.244-16.84,38.528-37.539,38.528-20.177,0-36.592,16.858-36.592,37.58a2.919,2.919,0,0,0,2.914,2.917H1496.5c30.378,0,55.093-25.379,55.093-56.574V971.657c0-12.25-9.7-22.216-21.627-22.216Z" transform="translate(-1394.524 -948.493)"/>
            </g>
          </g>
          <g id="Group_8248" data-name="Group 8248" transform="translate(76.558 86.864)">
            <g id="Group_8246" data-name="Group 8246" transform="translate(0.474 0.474)">
              <rect id="Rectangle_1637" data-name="Rectangle 1637" width="8.891" height="103.523" fill="#fff"/>
            </g>
            <g id="Group_8247" data-name="Group 8247">
              <path id="Path_1473" data-name="Path 1473" d="M1773.766,1472.634h-8.891a.474.474,0,0,1-.474-.474V1368.638a.473.473,0,0,1,.474-.474h8.891a.473.473,0,0,1,.474.474V1472.16A.474.474,0,0,1,1773.766,1472.634Zm-8.417-.948h7.943V1369.111h-7.943Z" transform="translate(-1764.402 -1368.164)"/>
            </g>
          </g>
          <g id="Group_8251" data-name="Group 8251" transform="translate(39.331 190.292)">
            <g id="Group_8249" data-name="Group 8249" transform="translate(0.474 0.474)">
              <path id="Path_1474" data-name="Path 1474" d="M1586.836,1873.6l39.348-3.455h3.608l40.171,3.455v2.74h-83.128Z" transform="translate(-1586.836 -1870.146)" fill="#fff"/>
            </g>
            <g id="Group_8250" data-name="Group 8250">
              <path id="Path_1475" data-name="Path 1475" d="M1668.149,1875h-83.128a.473.473,0,0,1-.474-.473v-2.74a.474.474,0,0,1,.432-.472l39.349-3.455,3.649,0,40.212,3.457a.473.473,0,0,1,.433.472v2.74A.473.473,0,0,1,1668.149,1875Zm-82.655-.947h82.181v-1.832l-39.739-3.418-3.567,0-38.875,3.416Z" transform="translate(-1584.547 -1867.858)"/>
            </g>
          </g>
        </g>
        <g id="Group_8318" data-name="Group 8318" transform="translate(21.716 0)">
          <g id="Group_8274" data-name="Group 8274" transform="translate(0 106.834)">
            <g id="Group_8255" data-name="Group 8255" transform="translate(64.328 75.689)">
              <g id="Group_8253" data-name="Group 8253" transform="translate(0.474 0.474)">
                <path id="Path_1476" data-name="Path 1476" d="M1595.083,1733.187c-.913-.923-6.185-17.324-6.185-17.324l-10.418,7.433,11.422,15.351Z" transform="translate(-1578.48 -1715.863)" fill="#fff"/>
              </g>
              <g id="Group_8254" data-name="Group 8254">
                <path id="Path_1477" data-name="Path 1477" d="M1588.086,1737.306h-.028a.473.473,0,0,1-.352-.19l-11.422-15.351a.474.474,0,0,1,.105-.668l10.418-7.433a.474.474,0,0,1,.726.241c2,6.23,5.423,16.393,6.074,17.139a.5.5,0,0,1,0,.656l-5.181,5.46A.475.475,0,0,1,1588.086,1737.306Zm-10.753-15.719,10.8,14.511,4.544-4.789c-1.227-2.324-4.721-13.023-5.844-16.5Z" transform="translate(-1576.191 -1713.575)"/>
              </g>
            </g>
            <g id="Group_8260" data-name="Group 8260" transform="translate(60.398 85.57)">
              <g id="Group_8256" data-name="Group 8256">
                <path id="Path_1478" data-name="Path 1478" d="M1559.437,1789.969l6.929-.041a13.636,13.636,0,0,0,11.348-6.2l6.85-10.847a6.092,6.092,0,0,0-2.3-8.632c-2.859-1.52-5.855-3-6.558-2.934-1.426.136-2,6.879-2,6.879l-6.173.238s-3.05,12.681-5.733,14.122a11.782,11.782,0,0,0-4.238,4A2.211,2.211,0,0,0,1559.437,1789.969Z" transform="translate(-1557.205 -1761.314)"/>
              </g>
              <g id="Group_8257" data-name="Group 8257" transform="translate(2.455 6.64)">
                <path id="Path_1479" data-name="Path 1479" d="M1569.54,1813.176a.474.474,0,0,1-.07-.942l9.477-1.427a6.7,6.7,0,0,0,4.765-3.193l8.374-13.99a.474.474,0,1,1,.813.487l-8.374,13.99a7.644,7.644,0,0,1-5.437,3.644l-9.477,1.428A.6.6,0,0,1,1569.54,1813.176Z" transform="translate(-1569.067 -1793.393)" fill="#fff"/>
              </g>
              <g id="Group_8258" data-name="Group 8258" transform="translate(8.873 13.516)">
                <path id="Path_1480" data-name="Path 1480" d="M1605.826,1829a.471.471,0,0,1-.125-.017l-5.28-1.438a.474.474,0,1,1,.249-.914l5.28,1.438a.474.474,0,0,1-.124.931Z" transform="translate(-1600.072 -1826.616)" fill="#fff"/>
              </g>
              <g id="Group_8259" data-name="Group 8259" transform="translate(7.862 16.8)">
                <path id="Path_1481" data-name="Path 1481" d="M1599.205,1844.294a.472.472,0,0,1-.113-.013l-3.54-.866a.474.474,0,1,1,.225-.921l3.54.866a.474.474,0,0,1-.112.934Z" transform="translate(-1595.191 -1842.48)" fill="#fff"/>
              </g>
            </g>
            <g id="Group_8263" data-name="Group 8263" transform="translate(26.875 84.133)">
              <g id="Group_8261" data-name="Group 8261" transform="translate(0.474 0.474)">
                <path id="Path_1482" data-name="Path 1482" d="M1416.037,1762.412l-12.1,12.153-6.412-2.355,11.15-15.548Z" transform="translate(-1397.529 -1756.662)" fill="#fff"/>
              </g>
              <g id="Group_8262" data-name="Group 8262">
                <path id="Path_1483" data-name="Path 1483" d="M1402.127,1773.224a.479.479,0,0,1-.163-.029l-6.412-2.355a.473.473,0,0,1-.222-.721l11.15-15.548a.473.473,0,0,1,.677-.1l7.358,5.75a.474.474,0,0,1,.044.707l-12.1,12.153A.472.472,0,0,1,1402.127,1773.224Zm-5.664-3.059,5.543,2.036,11.5-11.56-6.548-5.117Z" transform="translate(-1395.241 -1754.373)"/>
              </g>
            </g>
            <g id="Group_8268" data-name="Group 8268" transform="translate(0 97.327)">
              <g id="Group_8264" data-name="Group 8264">
                <path id="Path_1484" data-name="Path 1484" d="M1302.982,1821.4a34.81,34.81,0,0,1-.407,9.739,5.317,5.317,0,0,1-5.214,4.147h-29.686a2.27,2.27,0,0,1-1.457-4.011c5.278-4.422,14.988-11.175,26.927-13.157l3.33,4.66Z" transform="translate(-1265.4 -1818.117)"/>
              </g>
              <g id="Group_8265" data-name="Group 8265" transform="translate(3.213 12.613)">
                <path id="Path_1485" data-name="Path 1485" d="M1312.161,1880H1281.4a.474.474,0,1,1,0-.947h30.765a.474.474,0,1,1,0,.947Z" transform="translate(-1280.922 -1879.053)" fill="#fff"/>
              </g>
              <g id="Group_8266" data-name="Group 8266" transform="translate(18.75 3.198)">
                <path id="Path_1486" data-name="Path 1486" d="M1358.092,1838.463a.474.474,0,0,1-.438-.293l-1.629-3.951a.474.474,0,1,1,.876-.361l1.629,3.95a.474.474,0,0,1-.258.618A.48.48,0,0,1,1358.092,1838.463Z" transform="translate(-1355.989 -1833.565)" fill="#fff"/>
              </g>
              <g id="Group_8267" data-name="Group 8267" transform="translate(13.847 4.623)">
                <path id="Path_1487" data-name="Path 1487" d="M1333.95,1844.961a.474.474,0,0,1-.45-.325l-1.179-3.564a.474.474,0,0,1,.9-.3l1.178,3.563a.474.474,0,0,1-.3.6A.479.479,0,0,1,1333.95,1844.961Z" transform="translate(-1332.297 -1840.45)" fill="#fff"/>
              </g>
            </g>
            <g id="Group_8269" data-name="Group 8269" transform="translate(34.376 3.863)">
              <path id="Path_1488" data-name="Path 1488" d="M1506.987,1368.01s-55.28-6.435-71.718,7.794,25.949,75.42,25.949,75.42l13.4-9.941-12.715-43.249,51.1-14.512Z" transform="translate(-1431.481 -1366.559)"/>
            </g>
            <g id="Group_8270" data-name="Group 8270" transform="translate(34.452)">
              <path id="Path_1489" data-name="Path 1489" d="M1537.7,1381.374c-8.03,2.549-22.4,5.843-42.479,5.569a14.987,14.987,0,0,0-13.565,8.158c-5.948,11.665-18.823,32.668-39.793,46.281l-10.016-5.4,25.563-57.544a21.236,21.236,0,0,1,12.1-11.316l50.664-18.578s15.709-4.391,23.411,9.633c1.375,2.5,3.93-1.973,4.538.048C1550.207,1365.157,1544.6,1379.185,1537.7,1381.374Z" transform="translate(-1431.849 -1347.897)"/>
            </g>
            <g id="Group_8271" data-name="Group 8271" transform="translate(47.99 9.858)">
              <path id="Path_1490" data-name="Path 1490" d="M1497.728,1442.69a.473.473,0,0,1-.433-.666l11.552-26a21.824,21.824,0,0,1,12.365-11.569l24.262-8.9a.474.474,0,1,1,.326.889l-24.262,8.9a20.87,20.87,0,0,0-11.826,11.064l-11.552,26A.474.474,0,0,1,1497.728,1442.69Z" transform="translate(-1497.254 -1395.525)" fill="#fff"/>
            </g>
            <g id="Group_8272" data-name="Group 8272" transform="translate(61.477 70.743)">
              <path id="Path_1491" data-name="Path 1491" d="M1562.892,1698.314a.474.474,0,0,1-.342-.8c2.306-2.4,4.575-4.974,6.746-7.657a.474.474,0,0,1,.737.6c-2.187,2.7-4.475,5.3-6.8,7.718A.471.471,0,0,1,1562.892,1698.314Z" transform="translate(-1562.418 -1689.68)" fill="#fff"/>
            </g>
            <g id="Group_8273" data-name="Group 8273" transform="translate(68.25 66.658)">
              <path id="Path_1492" data-name="Path 1492" d="M1595.614,1674.976a.474.474,0,0,1-.368-.771c1.066-1.318,2.129-2.687,3.159-4.07a.474.474,0,1,1,.76.566c-1.037,1.392-2.108,2.772-3.182,4.1A.473.473,0,0,1,1595.614,1674.976Z" transform="translate(-1595.141 -1669.944)" fill="#fff"/>
            </g>
          </g>
          <g id="Group_8284" data-name="Group 8284" transform="translate(59.337 37.737)">
            <g id="Group_8277" data-name="Group 8277" transform="translate(0 29.036)">
              <g id="Group_8275" data-name="Group 8275" transform="translate(0.473 0.481)">
                <path id="Path_1493" data-name="Path 1493" d="M1591.875,1156.916s-4.862,44.149-37.512,47.038l37.512.533s13.889-28.145,14.453-39.1S1591.875,1156.916,1591.875,1156.916Z" transform="translate(-1554.363 -1156.673)" fill="#fff"/>
              </g>
              <g id="Group_8276" data-name="Group 8276">
                <path id="Path_1494" data-name="Path 1494" d="M1590.06,1203.119h-.007l-37.512-.533a.474.474,0,0,1-.034-.946c16.631-1.472,25.821-14.031,30.6-24.308a80.838,80.838,0,0,0,6.481-22.31.474.474,0,0,1,.393-.415c.342-.057,8.387-1.34,12.583,2.408a7.788,7.788,0,0,1,2.422,6.552c-.562,10.93-13.933,38.135-14.5,39.288A.473.473,0,0,1,1590.06,1203.119Zm-32.209-1.4,31.916.453c1.417-2.907,13.751-28.48,14.274-38.65a6.889,6.889,0,0,0-2.1-5.8c-3.391-3.03-9.881-2.427-11.451-2.229a82.488,82.488,0,0,1-6.507,22.216C1577.905,1190.778,1568.942,1198.981,1557.851,1201.714Z" transform="translate(-1552.075 -1154.35)"/>
              </g>
            </g>
            <g id="Group_8280" data-name="Group 8280" transform="translate(25.99)">
              <g id="Group_8278" data-name="Group 8278" transform="translate(0.474 0.473)">
                <path id="Path_1495" data-name="Path 1495" d="M1737.92,1017.583c-6.334-1.489-8.976-1.509-32-.675-5.627.2-12.32,7.266-12.982,12.858,1.789,5.364,10.043,31.845-4.367,52.536a44.749,44.749,0,0,1-8.64,9.242,28.976,28.976,0,0,0,9.949,5.319c7.428,2.206,11.164-.178,17.15,0,15.835.472,21.641,18.108,31.868,15.893,2.73-.591,6.351-2.722,9.744-9.867a110,110,0,0,0,4.588-20.745,113.775,113.775,0,0,0-5.42-50.2C1746.688,1028.43,1745.387,1019.338,1737.92,1017.583Z" transform="translate(-1679.931 -1016.354)" fill="#fff"/>
              </g>
              <g id="Group_8279" data-name="Group 8279">
                <path id="Path_1496" data-name="Path 1496" d="M1735.288,1111.613c-4.227,0-7.727-3.126-11.7-6.674-4.816-4.3-10.275-9.173-18.388-9.415a32.251,32.251,0,0,0-5.793.466,23.988,23.988,0,0,1-11.477-.486,29.371,29.371,0,0,1-10.113-5.4.473.473,0,0,1,0-.736,44.491,44.491,0,0,0,8.55-9.145c13.237-19.007,7.421-42.778,4.306-52.116a.463.463,0,0,1-.021-.205c.664-5.609,7.3-13.053,13.436-13.276,23.411-.849,25.812-.8,32.124.687,6.707,1.577,8.609,8.7,9.746,12.95.18.672.335,1.254.488,1.731a113.368,113.368,0,0,1,5.439,50.4,110.855,110.855,0,0,1-4.608,20.834.484.484,0,0,1-.023.057c-2.792,5.877-6.179,9.284-10.072,10.126A8.928,8.928,0,0,1,1735.288,1111.613Zm-30.721-17.046q.326,0,.662.01c8.457.252,14.052,5.248,18.99,9.656,4.359,3.892,8.125,7.253,12.764,6.248,3.584-.776,6.748-4,9.4-9.579a109.876,109.876,0,0,0,4.558-20.626,112.433,112.433,0,0,0-5.4-49.989c-.162-.508-.32-1.1-.5-1.782-1.082-4.049-2.893-10.826-9.047-12.273-6.2-1.457-8.581-1.506-31.873-.663-5.157.187-11.782,6.734-12.517,12.337,3.168,9.544,8.972,33.565-4.462,52.854a45.3,45.3,0,0,1-8.275,8.966,28.263,28.263,0,0,0,9.33,4.87,22.855,22.855,0,0,0,11.073.456A36,36,0,0,1,1704.567,1094.566Z" transform="translate(-1677.641 -1014.068)"/>
              </g>
            </g>
            <g id="Group_8283" data-name="Group 8283" transform="translate(33.22 1.832)">
              <g id="Group_8281" data-name="Group 8281" transform="translate(0.474 0.474)">
                <path id="Path_1497" data-name="Path 1497" d="M1714.863,1057.608s3.724-29.853,14.453-32.4c-3.775,11.6-5.032,24.228-4.483,37.586a.681.681,0,0,1-1.051.6Z" transform="translate(-1714.863 -1025.207)" fill="#fff"/>
              </g>
              <g id="Group_8282" data-name="Group 8282">
                <path id="Path_1498" data-name="Path 1498" d="M1722.338,1062.167a1.149,1.149,0,0,1-.627-.187l-8.919-5.789a.472.472,0,0,1-.213-.456c.154-1.232,3.89-30.209,14.813-32.8a.474.474,0,0,1,.56.607c-3.583,11.014-5.042,23.254-4.46,37.42a1.159,1.159,0,0,1-1.154,1.208Zm-8.78-6.607,8.668,5.626a.2.2,0,0,0,.214.006.207.207,0,0,0,.106-.194c-.572-13.909.811-25.986,4.227-36.882C1717.655,1027.683,1713.969,1052.562,1713.558,1055.56Z" transform="translate(-1712.575 -1022.919)"/>
              </g>
            </g>
          </g>
          <g id="Group_8292" data-name="Group 8292" transform="translate(17.277 69.078)">
            <g id="Group_8291" data-name="Group 8291">
              <g id="Group_8287" data-name="Group 8287">
                <g id="Group_8285" data-name="Group 8285" transform="translate(0.472 0.474)">
                  <path id="Path_1499" data-name="Path 1499" d="M1353.634,1167.773h38.955a4.815,4.815,0,0,1,4.043,2.166l14.615,43.02h34.481v.645a3.679,3.679,0,0,1-3.679,3.679h-73.177a3.679,3.679,0,0,1-3.679-3.679v-.567l-13.209-40.226c-.2-.612-.449-1.207-.678-1.809A2.418,2.418,0,0,1,1353.634,1167.773Z" transform="translate(-1351.154 -1167.773)" fill="#fff"/>
                </g>
                <g id="Group_8286" data-name="Group 8286">
                  <path id="Path_1500" data-name="Path 1500" d="M1440.24,1215.942h-73.177a4.158,4.158,0,0,1-4.153-4.153v-.487l-13.186-40.159c-.14-.426-.309-.857-.471-1.273l-.2-.514a2.82,2.82,0,0,1,.326-2.6,2.922,2.922,0,0,1,2.445-1.268h38.955a5.265,5.265,0,0,1,4.441,2.381.485.485,0,0,1,.051.106l14.506,42.7h34.141a.474.474,0,0,1,.474.474v.645A4.157,4.157,0,0,1,1440.24,1215.942Zm-76.418-4.9a.466.466,0,0,1,.036.18v.567a3.209,3.209,0,0,0,3.206,3.205h73.177a3.209,3.209,0,0,0,3.205-3.205v-.171h-34.007a.474.474,0,0,1-.448-.321l-14.595-42.963a4.322,4.322,0,0,0-3.615-1.9h-38.955a1.988,1.988,0,0,0-1.665.858,1.874,1.874,0,0,0-.221,1.728l.2.507c.167.429.34.872.489,1.323Z" transform="translate(-1348.873 -1165.485)"/>
                </g>
              </g>
              <g id="Group_8288" data-name="Group 8288" transform="translate(25.706 19.978)">
                <path id="Path_1501" data-name="Path 1501" d="M1478.972,1264.551a3.026,3.026,0,1,1-3.863-2.434A3.246,3.246,0,0,1,1478.972,1264.551Z" transform="translate(-1473.067 -1262.004)"/>
              </g>
              <g id="Group_8289" data-name="Group 8289" transform="translate(26.711 45.264)">
                <path id="Path_1502" data-name="Path 1502" d="M1503.783,1385.12h-25.388a.474.474,0,0,1,0-.948h25.388a.474.474,0,0,1,0,.948Z" transform="translate(-1477.921 -1384.173)"/>
              </g>
              <g id="Group_8290" data-name="Group 8290" transform="translate(13.784 45.264)">
                <path id="Path_1503" data-name="Path 1503" d="M1420.443,1385.12h-4.5a.474.474,0,1,1,0-.948h4.5a.474.474,0,1,1,0,.948Z" transform="translate(-1415.469 -1384.173)"/>
              </g>
            </g>
          </g>
          <g id="Group_8301" data-name="Group 8301" transform="translate(82.604 38.419)">
            <g id="Group_8295" data-name="Group 8295" transform="translate(0 30.662)">
              <g id="Group_8293" data-name="Group 8293" transform="translate(0.473 0.474)">
                <path id="Path_1504" data-name="Path 1504" d="M1673.365,1209.2c2.23-3.489,6.324-5.258,8.575-5.13,10.235.579,29.97-9.777,44.648-14.782,2.542-3.7.694-11.787,1.849-21.494l18.721,1.618c1.868,9.253,1.156,24.961-.462,27.041-1.07,2.548-6.892,9.949-18.72,15.716-18.49,9.014-43.24,3.122-43.24,3.122s-12.544,6.631-17.96-.575A17.723,17.723,0,0,0,1673.365,1209.2Z" transform="translate(-1666.775 -1167.792)" fill="#fff"/>
              </g>
              <g id="Group_8294" data-name="Group 8294">
                <path id="Path_1505" data-name="Path 1505" d="M1672.48,1216.753a9.361,9.361,0,0,1-7.9-3.571.474.474,0,0,1,.179-.714c.042-.02,4.264-2.013,6.391-5.341,2.231-3.492,6.407-5.5,9-5.348,6.876.382,18.322-4.323,29.39-8.881,5.058-2.083,10.287-4.235,14.925-5.824,1.331-2.082,1.3-5.666,1.265-10.178a84.564,84.564,0,0,1,.419-10.976.468.468,0,0,1,.511-.416l18.721,1.618a.474.474,0,0,1,.424.378c1.834,9.088,1.249,24.883-.513,27.372-.986,2.261-6.456,9.825-18.927,15.905-17.617,8.589-41.131,3.7-43.384,3.2A25.922,25.922,0,0,1,1672.48,1216.753Zm-6.781-3.7c5.3,6.079,16.883.06,17,0a.469.469,0,0,1,.331-.042c.246.058,24.8,5.748,42.923-3.086,11.4-5.555,17.379-12.824,18.492-15.474a.465.465,0,0,1,.063-.108c1.452-1.867,2.2-17.125.44-26.309l-17.907-1.547a86.344,86.344,0,0,0-.36,10.4c.039,4.773.07,8.543-1.516,10.85a.472.472,0,0,1-.238.18c-4.648,1.585-9.923,3.757-15.023,5.856-11.167,4.6-22.71,9.363-29.805,8.95-2.03-.1-5.987,1.53-8.149,4.913A17.493,17.493,0,0,1,1665.7,1213.056Zm5.854-5.674h0Z" transform="translate(-1664.488 -1165.501)"/>
              </g>
            </g>
            <g id="Group_8298" data-name="Group 8298" transform="translate(2.07 73.384)">
              <g id="Group_8296" data-name="Group 8296">
                <path id="Path_1506" data-name="Path 1506" d="M1675.116,1377.377a2.026,2.026,0,0,1-.2-.008.474.474,0,0,1-.424-.519.468.468,0,0,1,.516-.424c.046,0,3.289.214,8.362-4.392a.474.474,0,1,1,.636.7C1679.23,1377.07,1675.948,1377.377,1675.116,1377.377Z" transform="translate(-1674.487 -1371.911)"/>
              </g>
              <g id="Group_8297" data-name="Group 8297" transform="translate(3.113 2.545)">
                <path id="Path_1507" data-name="Path 1507" d="M1690.307,1388.823a2.639,2.639,0,0,1-.377-.022.474.474,0,0,1,.144-.937c.052.009,2.9.335,7.36-3.542a.474.474,0,1,1,.622.715C1694.1,1388.474,1691.288,1388.823,1690.307,1388.823Z" transform="translate(-1689.53 -1384.208)"/>
              </g>
            </g>
            <g id="Group_8299" data-name="Group 8299" transform="translate(57.745 0.474)">
              <path id="Path_1508" data-name="Path 1508" d="M1968.927,1058.654a.2.2,0,0,0,.224-.213c-.13-2.122-1.139-17.962-2.567-24.349-3.224-14.414-23.111-14.436-23.111-14.436a91.6,91.6,0,0,1,3.684,35.558,1.264,1.264,0,0,0,1.129,1.393Z" transform="translate(-1943.473 -1019.655)" fill="#fff"/>
            </g>
            <g id="Group_8300" data-name="Group 8300" transform="translate(57.271)">
              <path id="Path_1509" data-name="Path 1509" d="M1967.133,1057.312c-.022,0-.046,0-.069,0l-20.641-2.048a1.721,1.721,0,0,1-1.17-.627,1.739,1.739,0,0,1-.384-1.286c.258-2.524.4-5.1.423-7.649a.473.473,0,0,1,.473-.47h0a.474.474,0,0,1,.47.478c-.023,2.581-.167,5.184-.427,7.738a.8.8,0,0,0,.175.589.779.779,0,0,0,.53.284l20.326,2.016c-.181-2.885-1.167-17.836-2.536-23.956-3.105-13.884-22.455-14.066-22.65-14.066a.474.474,0,0,1,0-.948c.2,0,20.305.192,23.573,14.807,1.448,6.472,2.466,22.605,2.577,24.423a.674.674,0,0,1-.675.716Zm.025-.946h0Z" transform="translate(-1941.184 -1017.365)"/>
            </g>
          </g>
          <g id="Group_8312" data-name="Group 8312" transform="translate(107.161)">
            <g id="Group_8311" data-name="Group 8311">
              <g id="Group_8304" data-name="Group 8304" transform="translate(12.268 17.554)">
                <g id="Group_8302" data-name="Group 8302" transform="translate(0.474 0.474)">
                  <path id="Path_1510" data-name="Path 1510" d="M1848.359,923.747l-.855,11.891a3.8,3.8,0,0,1-2.811,3.214c6.4,3.736,15.923,3.98,17.98-.312-1.49-.333-2.637-2.457-2.908-3.961l-2.292-15.735Z" transform="translate(-1844.693 -918.845)" fill="#fff"/>
                </g>
                <g id="Group_8303" data-name="Group 8303">
                  <path id="Path_1511" data-name="Path 1511" d="M1853.476,940.363a22.467,22.467,0,0,1-10.837-2.915.474.474,0,0,1,.119-.867,3.3,3.3,0,0,0,2.46-2.813l.853-11.868a.474.474,0,0,1,.248-.384l9.114-4.9a.474.474,0,0,1,.693.349l2.292,15.735c.266,1.47,1.377,3.307,2.543,3.567a.474.474,0,0,1,.324.667,5.89,5.89,0,0,1-3.8,2.892A13.822,13.822,0,0,1,1853.476,940.363Zm-9.49-3.258c4.2,2.154,9.615,2.921,13.225,1.813a5.383,5.383,0,0,0,2.955-1.939,6.124,6.124,0,0,1-2.683-4.129l-2.2-15.082L1847,922.226l-.836,11.632A4.258,4.258,0,0,1,1843.986,937.1Z" transform="translate(-1842.404 -916.557)"/>
                </g>
              </g>
              <g id="Group_8310" data-name="Group 8310">
                <g id="Group_8305" data-name="Group 8305">
                  <path id="Path_1512" data-name="Path 1512" d="M1786.028,838.126c2.859-1.513.557,3.2,9.96-4.94,3.745-3.241,3.879,2.809,4.853,1.971,3.6-3.1,3.47-2.994,5.739-3.387,1.5-.261,3.512,1.812,4.109,3.773.788,2.589-.933,4.139-.346,10.1.413,4.188,1.731,6.245.524,7.436s-3.207-.268-4.639.945c-1.854,1.571.262,5.063-1.107,7.539-.863,1.561-3.7,3.4-9.659,3.255a2.021,2.021,0,0,1-1.942-1.691c-.2-1.226-.448-2.776-.561-4.276-.533-7.15,1.006-9.526-.51-10.748-2.323-1.873-6.27,1.615-7.945-.029C1782.765,846.368,1782.114,840.2,1786.028,838.126Z" transform="translate(-1783.133 -831.747)"/>
                </g>
                <g id="Group_8308" data-name="Group 8308" transform="translate(6.406 9.154)">
                  <g id="Group_8306" data-name="Group 8306" transform="translate(0.474 0.481)">
                    <path id="Path_1513" data-name="Path 1513" d="M1826.611,879.05l-.119,1.953a19.978,19.978,0,0,0,.023,2.762c.134,1.725.341,4.693.331,6.363-.015,2.454-7.6,2.933-7.6,2.933l-.962-1.071-.89.037a.993.993,0,0,1-.5-.1.958.958,0,0,1-.508-1.006c.359-2.167.987-6.952.292-10.672A10.376,10.376,0,0,1,1826.611,879.05Z" transform="translate(-1816.373 -878.298)" fill="#fff"/>
                  </g>
                  <g id="Group_8307" data-name="Group 8307">
                    <path id="Path_1514" data-name="Path 1514" d="M1817.431,891.692a.474.474,0,0,1-.353-.157l-.813-.905-.667.028a1.482,1.482,0,0,1-.74-.154,1.431,1.431,0,0,1-.756-1.5c.319-1.925.986-6.8.294-10.508a.474.474,0,0,1,.167-.455,10.759,10.759,0,0,1,10.4-1.271.474.474,0,0,1,.3.47l-.119,1.953a19.69,19.69,0,0,0,.023,2.7c.129,1.663.343,4.706.332,6.4-.017,2.757-6.7,3.319-8.043,3.4Zm-.963-2.019a.473.473,0,0,1,.352.157l.808.9c2.948-.218,6.919-1.1,6.927-2.448.01-1.662-.2-4.675-.329-6.323a20.581,20.581,0,0,1-.024-2.827l.1-1.6a9.843,9.843,0,0,0-8.922,1.082,35.312,35.312,0,0,1-.342,10.544.487.487,0,0,0,.26.509.517.517,0,0,0,.262.048l.889-.037Z" transform="translate(-1814.083 -875.973)"/>
                  </g>
                </g>
                <g id="Group_8309" data-name="Group 8309" transform="translate(18.45 12.252)">
                  <path id="Path_1515" data-name="Path 1515" d="M1872.273,895.095s.28-4.7,2.385-4.1S1876.326,896.747,1872.273,895.095Z" transform="translate(-1872.273 -890.94)" fill="#fff"/>
                </g>
              </g>
            </g>
          </g>
          <g id="Group_8313" data-name="Group 8313" transform="translate(124.759 39.5)">
            <path id="Path_1516" data-name="Path 1516" d="M1868.152,1022.584l9.492.73-3.894,6.572-4.868-.243Z" transform="translate(-1868.152 -1022.584)"/>
          </g>
          <g id="Group_8314" data-name="Group 8314" transform="translate(115.753 46.558)">
            <path id="Path_1517" data-name="Path 1517" d="M1824.643,1095.142l4.624,6.085,6.815-4.381,3.164-39.917-4.868-.243Z" transform="translate(-1824.643 -1056.686)"/>
          </g>
          <g id="Group_8317" data-name="Group 8317" transform="translate(117.389 34.483)">
            <g id="Group_8315" data-name="Group 8315" transform="translate(0.473 0.474)">
              <path id="Path_1518" data-name="Path 1518" d="M1839.377,1001.283l-4.543,3.57,6.815,4.219,3.894-4.381,4.219,5.517a18.937,18.937,0,0,1,7.789-6.166l-5.354-3.407C1846.627,1004.64,1842.683,1003.9,1839.377,1001.283Z" transform="translate(-1834.834 -1000.634)" fill="#fff"/>
            </g>
            <g id="Group_8316" data-name="Group 8316">
              <path id="Path_1519" data-name="Path 1519" d="M1847.948,1008.867a.473.473,0,0,1-.376-.186l-3.87-5.061-3.513,3.952a.474.474,0,0,1-.6.089l-6.815-4.219a.474.474,0,0,1-.043-.775l4.543-3.57a.474.474,0,0,1,.586,0c3.733,2.95,7.511,2.746,12.249-.662a.474.474,0,0,1,.531-.015l5.355,3.408a.474.474,0,0,1-.051.827,18.629,18.629,0,0,0-7.6,6.005.474.474,0,0,1-.378.207Zm-4.219-6.465h.018a.472.472,0,0,1,.359.186l3.83,5.009a19.506,19.506,0,0,1,6.837-5.423l-4.376-2.785c-4.832,3.381-8.926,3.6-12.83.679l-3.721,2.924,5.9,3.652,3.629-4.083A.473.473,0,0,1,1843.729,1002.4Z" transform="translate(-1832.546 -998.345)"/>
            </g>
          </g>
        </g>
        <g id="Group_8329" data-name="Group 8329" transform="translate(0 117.781)">
          <g id="Group_8321" data-name="Group 8321" transform="translate(122.959 6.388)">
            <g id="Group_8319" data-name="Group 8319" transform="translate(0.474 0.473)">
              <path id="Path_1520" data-name="Path 1520" d="M1762.015,1533.374l21.646-89.832,21.646,89.832h5.189l-23.783-99.429-6.1-.009-23.785,99.438Z" transform="translate(-1756.827 -1433.937)" fill="#fff"/>
            </g>
            <g id="Group_8320" data-name="Group 8320">
              <path id="Path_1521" data-name="Path 1521" d="M1808.682,1532.034h-5.189a.474.474,0,0,1-.461-.363l-21.185-87.921-21.186,87.921a.474.474,0,0,1-.461.363h-5.188a.474.474,0,0,1-.461-.584l23.785-99.438a.474.474,0,0,1,.461-.363h0l6.1.009a.474.474,0,0,1,.46.364l23.783,99.429a.474.474,0,0,1-.461.584Zm-4.815-.947h4.215l-23.557-98.482-5.354-.008-23.558,98.49h4.214l21.56-89.47a.473.473,0,0,1,.92,0Z" transform="translate(-1754.539 -1431.649)"/>
            </g>
          </g>
          <g id="Group_8324" data-name="Group 8324" transform="translate(0 6.08)">
            <g id="Group_8322" data-name="Group 8322" transform="translate(0.474 0.474)">
              <path id="Path_1522" data-name="Path 1522" d="M1167.961,1531.885l21.646-89.832,21.646,89.832h5.189l-23.784-99.429-6.1-.009-23.785,99.438Z" transform="translate(-1162.773 -1432.448)" fill="#fff"/>
            </g>
            <g id="Group_8323" data-name="Group 8323">
              <path id="Path_1523" data-name="Path 1523" d="M1214.627,1530.545h-5.188a.474.474,0,0,1-.461-.363l-21.186-87.921-21.186,87.921a.473.473,0,0,1-.46.363h-5.188a.473.473,0,0,1-.461-.584l23.785-99.438a.473.473,0,0,1,.461-.364l6.1.008a.474.474,0,0,1,.46.364l23.783,99.429a.473.473,0,0,1-.461.584Zm-4.815-.947h4.214l-23.557-98.483-5.353-.007-23.559,98.49h4.215l21.559-89.469a.473.473,0,0,1,.921,0Z" transform="translate(-1160.484 -1430.16)"/>
            </g>
          </g>
          <g id="Group_8327" data-name="Group 8327" transform="translate(2.303)">
            <g id="Group_8325" data-name="Group 8325" transform="translate(0.474 0.474)">
              <rect id="Rectangle_1638" data-name="Rectangle 1638" width="170.738" height="8.123" fill="#fff"/>
            </g>
            <g id="Group_8326" data-name="Group 8326">
              <path id="Path_1524" data-name="Path 1524" d="M1342.824,1409.857H1172.086a.473.473,0,0,1-.473-.474v-8.123a.473.473,0,0,1,.473-.474h170.737a.474.474,0,0,1,.474.474v8.123A.474.474,0,0,1,1342.824,1409.857Zm-170.263-.947h169.79v-7.176H1172.56Z" transform="translate(-1171.613 -1400.787)"/>
            </g>
          </g>
          <g id="Group_8328" data-name="Group 8328" transform="translate(121.345 1.691)">
            <path id="Path_1525" data-name="Path 1525" d="M1747.215,1414.428a.474.474,0,0,1-.474-.474v-4.523a.474.474,0,0,1,.947,0v4.523A.474.474,0,0,1,1747.215,1414.428Z" transform="translate(-1746.742 -1408.958)"/>
          </g>
        </g>
      </g>
      <g id="Group_8372" data-name="Group 8372" transform="translate(332.456 427.536)">
        <g id="Group_8371" data-name="Group 8371" transform="translate(0 0)">
          <g id="Group_8333" data-name="Group 8333" transform="translate(34.353 26.974)">
            <g id="Group_8331" data-name="Group 8331" transform="translate(0.474 0.474)">
              <ellipse id="Ellipse_214" data-name="Ellipse 214" cx="12.553" cy="5.447" rx="12.553" ry="5.447" fill="#fff"/>
            </g>
            <g id="Group_8332" data-name="Group 8332">
              <path id="Path_1526" data-name="Path 1526" d="M638.964,907.3c-7.3,0-13.026-2.6-13.026-5.921s5.722-5.921,13.026-5.921,13.026,2.6,13.026,5.921S646.269,907.3,638.964,907.3Zm0-10.895c-6.547,0-12.079,2.278-12.079,4.974s5.532,4.974,12.079,4.974,12.079-2.278,12.079-4.974S645.512,896.4,638.964,896.4Z" transform="translate(-625.938 -895.457)"/>
            </g>
          </g>
          <g id="Group_8340" data-name="Group 8340">
            <g id="Group_8336" data-name="Group 8336" transform="translate(29.849 12.255)">
              <g id="Group_8334" data-name="Group 8334" transform="translate(0.466 0.473)">
                <path id="Path_1527" data-name="Path 1527" d="M633.225,839.6c-.059-.653-3.2-2.018-3.917-2.848s-.593-2.077-1.009-3.2a8.516,8.516,0,0,0-1.978-2.5c-8.728-10.55-18.567,1.113-18.567,1.113-2.083,2.908-1.336,7.185-.3,9.614,2.006,4.7,7.521,8.014,7.521,8.014q.087.359.148.7c.786,4.419-2.778,10.641-7.14,11.7l-.119.03a15.375,15.375,0,0,0,21.965,1.672,14.156,14.156,0,0,1-3.618-1.574c-3.821-2.575-1.117-10.845-.168-11.616s5.4.547,6.376-.716c1.433-1.862-.679-7.413-.679-7.947,0-.253.348-.668.707-1.1C632.846,840.451,633.256,839.945,633.225,839.6Z" transform="translate(-606.43 -826.63)" fill="#fff"/>
              </g>
              <g id="Group_8335" data-name="Group 8335">
                <path id="Path_1528" data-name="Path 1528" d="M617.887,866.392a15.853,15.853,0,0,1-12.169-5.684.473.473,0,0,1,.252-.765l.119-.03c4.006-.969,7.557-6.805,6.784-11.152-.029-.16-.061-.322-.1-.487-.979-.619-5.675-3.755-7.54-8.127-.952-2.231-1.949-6.865.351-10.076.22-.263,4.9-5.728,10.8-5.728h.046c3.1.015,5.943,1.549,8.444,4.56a8.691,8.691,0,0,1,2.08,2.669,8.087,8.087,0,0,1,.338,1.387,3.452,3.452,0,0,0,.586,1.673,9.8,9.8,0,0,0,1.81,1.228c1.422.844,2.166,1.311,2.219,1.885.046.506-.337,1.014-.883,1.675l-.031.037a4.044,4.044,0,0,0-.57.79c.011.055.125.458.225.814.568,2.01,1.624,5.749.358,7.4-.7.9-2.412.8-4.072.7a6.1,6.1,0,0,0-2.381.1c-.438.356-1.769,3.814-1.631,6.9.085,1.891.679,3.222,1.765,3.954a13.659,13.659,0,0,0,3.5,1.516.474.474,0,0,1,.168.807A15.859,15.859,0,0,1,617.887,866.392Zm-10.957-5.741a14.9,14.9,0,0,0,20.155,1.607,12.546,12.546,0,0,1-2.922-1.364,5.664,5.664,0,0,1-2.182-4.7c-.14-3.12,1.136-6.992,1.98-7.679.563-.457,1.654-.39,3.036-.306,1.213.074,2.874.175,3.263-.331.976-1.27-.071-4.977-.519-6.561a5.268,5.268,0,0,1-.259-1.1c0-.416.346-.836.784-1.367l.031-.037a4.371,4.371,0,0,0,.664-.955,9.667,9.667,0,0,0-1.753-1.187,9.452,9.452,0,0,1-2.046-1.427,4.239,4.239,0,0,1-.8-2.12,7.377,7.377,0,0,0-.3-1.229,7.8,7.8,0,0,0-1.846-2.31.556.556,0,0,1-.052-.054c-2.318-2.8-4.921-4.23-7.738-4.245h-.044c-5.463,0-10.013,5.308-10.058,5.362-2.032,2.839-1.1,7.073-.226,9.122,1.923,4.509,7.275,7.761,7.329,7.794a.474.474,0,0,1,.217.295c.06.249.111.493.153.732C614.629,853.229,611.162,859.167,606.929,860.651ZM630.983,837.9Z" transform="translate(-604.179 -824.343)"/>
              </g>
            </g>
            <g id="Group_8339" data-name="Group 8339">
              <g id="Group_8337" data-name="Group 8337">
                <path id="Path_1529" data-name="Path 1529" d="M459.966,784.406c0-7.721,3.588-13.148,10.145-16.223,2.481-1.164,6.2-3.048,9.126-3.048a19.271,19.271,0,0,1,0,38.542c-4.941,0-7.846-2.86-11.256-5.918C464.045,794.231,459.966,790.108,459.966,784.406Z" transform="translate(-459.966 -765.135)"/>
              </g>
              <g id="Group_8338" data-name="Group 8338" transform="translate(29.69 11.163)">
                <path id="Path_1530" data-name="Path 1530" d="M624.9,823.843c-8.01-8.764-15.389-3.353-18.408-.335a10.349,10.349,0,0,0-2.676,4.386,11.848,11.848,0,0,0,.813,8.146c1.669,3.911,5.65,6.906,7.232,7.981a1.015,1.015,0,0,0,1.255-.094,26.344,26.344,0,0,0,2.356-2.42.766.766,0,0,0-.192-1.16,3.815,3.815,0,0,1-.333-.22,2.888,2.888,0,1,1,3.408-4.6c.1.075.2.154.286.236.724-2.646.472-4.818,1.461-6.849a5.691,5.691,0,0,1,5.142-3.337C625.753,824.967,624.9,823.843,624.9,823.843Z" transform="translate(-603.407 -819.069)"/>
              </g>
            </g>
          </g>
          <g id="Group_8349" data-name="Group 8349" transform="translate(17.525 152.839)">
            <g id="Group_8343" data-name="Group 8343" transform="translate(18.715 18.046)">
              <g id="Group_8341" data-name="Group 8341" transform="translate(0.474 0.474)">
                <path id="Path_1531" data-name="Path 1531" d="M672.937,1595.79l4.335,11.642a32.94,32.94,0,0,1-.286,23.728l-23.851,59.626,15.039,12.783h-30.83l17.775-71.1a39.182,39.182,0,0,0-.3-20.14l-5.442-19.3Z" transform="translate(-637.345 -1593.033)" fill="#fff"/>
              </g>
              <g id="Group_8342" data-name="Group 8342">
                <path id="Path_1532" data-name="Path 1532" d="M666.36,1702.226H635.53a.474.474,0,0,1-.459-.588l17.775-71.1a38.773,38.773,0,0,0-.3-19.9l-5.442-19.3a.473.473,0,0,1,.511-.6l23.561,2.757a.474.474,0,0,1,.389.305l4.335,11.642a33.348,33.348,0,0,1-.289,24.069l-23.725,59.311,14.78,12.563a.473.473,0,0,1-.307.834Zm-30.224-.947h28.935l-14.057-11.948a.473.473,0,0,1-.133-.536l23.851-59.627a32.406,32.406,0,0,0,.282-23.387l-4.234-11.37-22.57-2.641,5.25,18.615a39.714,39.714,0,0,1,.305,20.384Z" transform="translate(-635.057 -1590.741)"/>
              </g>
            </g>
            <g id="Group_8346" data-name="Group 8346">
              <g id="Group_8344" data-name="Group 8344" transform="translate(0.474 0.473)">
                <path id="Path_1533" data-name="Path 1533" d="M568.147,1505.842l4.781,43.344a75.354,75.354,0,0,1,.1,15.587l-8.053,56.953,12.449,13.2a1.566,1.566,0,0,1-.921,2.841l-24.144-2.59.064-71.853a139.43,139.43,0,0,0-1.6-14.123l-3.894-23.559Z" transform="translate(-546.925 -1505.842)" fill="#fff"/>
              </g>
              <g id="Group_8345" data-name="Group 8345">
                <path id="Path_1534" data-name="Path 1534" d="M574.7,1636.427h-.018l-24.19-2.592a.473.473,0,0,1-.423-.471l.063-71.853a139.431,139.431,0,0,0-1.594-14.045l-3.894-23.559a.474.474,0,0,1,.144-.424l21.222-19.8a.474.474,0,0,1,.794.295l4.781,43.344a75.966,75.966,0,0,1,.1,15.686l-8.023,56.747,12.263,13a2.039,2.039,0,0,1-1.222,3.671Zm-23.684-3.489,23.72,2.544h0a1.053,1.053,0,0,0,1-.758,1.063,1.063,0,0,0-.4-1.226.519.519,0,0,1-.07-.06l-12.449-13.2a.474.474,0,0,1-.124-.391l8.052-56.953a74.985,74.985,0,0,0-.1-15.469l-4.677-42.406L545.619,1524l3.853,23.308a140.506,140.506,0,0,1,1.606,14.171Z" transform="translate(-544.636 -1503.554)"/>
              </g>
            </g>
            <g id="Group_8347" data-name="Group 8347" transform="translate(19.694 102.321)">
              <path id="Path_1535" data-name="Path 1535" d="M653.149,2025.475h17.62a3.388,3.388,0,0,0,3.393-3.877,4.834,4.834,0,0,0-1.128-2.305l-13.107-6.554a2.707,2.707,0,0,1-1.118-3.8l5.382-9.081a1.293,1.293,0,0,0-1.113-1.952H645.216a2.03,2.03,0,0,0-2.01,1.74l-2.255,15.638-1.122,6.283a2.778,2.778,0,0,0,2.568,3.262Z" transform="translate(-639.785 -1997.903)"/>
            </g>
            <g id="Group_8348" data-name="Group 8348" transform="translate(2.63 104.661)">
              <path id="Path_1536" data-name="Path 1536" d="M559.834,2009.206h16a.43.43,0,0,1,.426.489l-.925,6.725c-.3,2.216.254,4.946,2.009,6.269l1.452,1.079,8.554,6.844a4.918,4.918,0,0,1-.159,7.841,1.875,1.875,0,0,1-.942.415l-2.808.2a39.629,39.629,0,0,1-11.671-.894l-12.7-2.9a1.729,1.729,0,0,1-1.728-1.8l.874-22.718A1.616,1.616,0,0,1,559.834,2009.206Z" transform="translate(-557.345 -2009.206)"/>
            </g>
          </g>
          <g id="Group_8370" data-name="Group 8370" transform="translate(7.137 32.421)">
            <g id="Group_8352" data-name="Group 8352" transform="translate(55.137 101.402)">
              <g id="Group_8350" data-name="Group 8350" transform="translate(0.474 0.474)">
                <path id="Path_1537" data-name="Path 1537" d="M769.9,1414.109l.72,1.883a19.924,19.924,0,0,1,.587,12.449l-.979,3.521-7.1-17.99Z" transform="translate(-763.121 -1413.972)" fill="#fff"/>
              </g>
              <g id="Group_8351" data-name="Group 8351">
                <path id="Path_1538" data-name="Path 1538" d="M768.409,1430.62a.473.473,0,0,1-.44-.3l-7.1-17.99a.475.475,0,0,1,.052-.445.5.5,0,0,1,.4-.2l6.776.137a.474.474,0,0,1,.433.3l.72,1.883a20.539,20.539,0,0,1,.6,12.745l-.978,3.521a.473.473,0,0,1-.431.346Zm-6.4-17.976,6.324,16.015.6-2.16a19.585,19.585,0,0,0-.573-12.153l-.606-1.585Z" transform="translate(-760.831 -1411.682)"/>
              </g>
            </g>
            <g id="Group_8355" data-name="Group 8355" transform="translate(57.349 69.469)">
              <g id="Group_8353" data-name="Group 8353" transform="translate(0.47 0.477)">
                <path id="Path_1539" data-name="Path 1539" d="M775.936,1260.789s6.85-2.05,11.451-.5c0,0,.55,2.95,2.5,4.35s6.85,2.25,7.65,5.1-9.2,5.051-12.651,3.45-6.45-5.3-9.8-5.3S775.936,1260.789,775.936,1260.789Z" transform="translate(-773.79 -1259.71)" fill="#fff"/>
              </g>
              <g id="Group_8354" data-name="Group 8354">
                <path id="Path_1540" data-name="Path 1540" d="M786.374,1272.37a8.7,8.7,0,0,1-3.487-.578,23.717,23.717,0,0,1-3.867-2.466c-1.961-1.435-3.814-2.79-5.734-2.79a1.611,1.611,0,0,1-1.519-.778c-1.029-1.8,1.453-6.179,1.961-7.037a.473.473,0,0,1,.272-.213c.286-.086,7.048-2.075,11.738-.5a.474.474,0,0,1,.314.361,7.346,7.346,0,0,0,2.311,4.053,14.059,14.059,0,0,0,2.5,1.225c2.217.932,4.73,1.987,5.332,4.132a2,2,0,0,1-.86,2.125C793.584,1271.4,789.592,1272.37,786.374,1272.37Zm-11.925-13c-1.057,1.832-2.43,4.923-1.859,5.924.073.129.225.3.7.3,2.23,0,4.3,1.511,6.294,2.973a23.01,23.01,0,0,0,3.706,2.371c2.5,1.158,9.229.131,11.433-1.745.473-.4.662-.789.562-1.147-.479-1.705-2.767-2.666-4.787-3.515a14.6,14.6,0,0,1-2.684-1.329,7.906,7.906,0,0,1-2.627-4.367C781.192,1257.626,775.518,1259.072,774.449,1259.365Z" transform="translate(-771.52 -1257.405)"/>
              </g>
            </g>
            <g id="Group_8358" data-name="Group 8358" transform="translate(0 14.827)">
              <g id="Group_8356" data-name="Group 8356" transform="translate(0.474 0.473)">
                <path id="Path_1541" data-name="Path 1541" d="M554.8,1081.935h3.831a.454.454,0,0,0,.452-.494c-.31-3.493-2.171-24.513-2.591-30.109-.458-6.11,2.989-37.549-.589-45.343-2.609-5.683-8.843-7.334-12.84-8.611-3.019,2.654-5.42,4.849-9.755,4.849-5.276,0-9.558-2.784-12.7-6.533a64.639,64.639,0,0,0-9.541,3.353,13.593,13.593,0,0,0-8.351,13.747c1,10.79,9,23.414,9,23.414l-.886,10.124a32.447,32.447,0,0,1-6.656,17.021,35.617,35.617,0,0,0-6.717,28.942l14.091,57.491,56.4-11.279Z" transform="translate(-496.736 -995.695)" fill="#fff"/>
              </g>
              <g id="Group_8357" data-name="Group 8357">
                <path id="Path_1542" data-name="Path 1542" d="M509.737,1148.448a.474.474,0,0,1-.46-.361L495.186,1090.6a36.065,36.065,0,0,1,6.8-29.345,31.912,31.912,0,0,0,6.559-16.773l.872-9.967c-.87-1.411-8.043-13.312-8.99-23.486a13.989,13.989,0,0,1,8.64-14.228l.167-.069a64.247,64.247,0,0,1,9.444-3.306.476.476,0,0,1,.475.156c2.436,2.9,6.554,6.363,12.34,6.363,4.063,0,6.351-2.012,9.247-4.56l.2-.172a.47.47,0,0,1,.457-.1l.74.234c3.921,1.233,9.846,3.1,12.386,8.631,2.528,5.507,1.643,22.084,1,34.189-.282,5.291-.505,9.47-.367,11.316.412,5.494,2.23,26.04,2.59,30.1a.927.927,0,0,1-.924,1.009h-3.234l13.01,55.992a.473.473,0,0,1-.063.364.469.469,0,0,1-.305.208l-56.4,11.28A.472.472,0,0,1,509.737,1148.448Zm8.886-154.035a64.753,64.753,0,0,0-9.02,3.189l-.167.07a13.045,13.045,0,0,0-8.062,13.266c.982,10.55,8.853,23.078,8.933,23.2a.474.474,0,0,1,.072.294l-.886,10.124a32.858,32.858,0,0,1-6.754,17.27,35.112,35.112,0,0,0-6.628,28.557l13.979,57.033,55.472-11.094-13.035-56.1a.474.474,0,0,1,.461-.581h3.831c-.38-4.042-2.2-24.593-2.61-30.093-.143-1.907.081-6.113.365-11.438.6-11.329,1.518-28.449-.912-33.744-2.365-5.151-7.824-6.868-11.81-8.122l-.487-.154c-2.924,2.571-5.45,4.791-9.868,4.791C525.5,1000.889,521.211,997.421,518.623,994.413Z" transform="translate(-494.447 -993.41)"/>
              </g>
            </g>
            <g id="Group_8359" data-name="Group 8359" transform="translate(53.208 77.735)">
              <path id="Path_1543" data-name="Path 1543" d="M756.945,1319.789a.474.474,0,0,1-.458-.354l-.033-.126a219.366,219.366,0,0,1-4.935-21.425.474.474,0,1,1,.937-.141,218.836,218.836,0,0,0,4.915,21.325l.033.127a.473.473,0,0,1-.338.578A.481.481,0,0,1,756.945,1319.789Z" transform="translate(-751.513 -1297.34)"/>
            </g>
            <g id="Group_8360" data-name="Group 8360" transform="translate(51.218 43.518)">
              <path id="Path_1544" data-name="Path 1544" d="M742.594,1151.573a.474.474,0,0,1-.472-.445c-.755-12.626.635-18.5.694-18.741a.474.474,0,0,1,.92.224c-.014.059-1.414,6-.669,18.461a.474.474,0,0,1-.445.5Z" transform="translate(-741.897 -1132.026)"/>
            </g>
            <g id="Group_8361" data-name="Group 8361" transform="translate(38.216 33.373)">
              <path id="Path_1545" data-name="Path 1545" d="M679.553,1093.979a.474.474,0,0,1-.341-.8,7.937,7.937,0,0,0,1.174-9.458.474.474,0,1,1,.822-.472,8.885,8.885,0,0,1-1.314,10.588A.472.472,0,0,1,679.553,1093.979Z" transform="translate(-679.079 -1083.008)"/>
            </g>
            <g id="Group_8362" data-name="Group 8362" transform="translate(52.211 30.799)">
              <path id="Path_1546" data-name="Path 1546" d="M747.168,1084.145a.473.473,0,0,1-.341-.8,10.12,10.12,0,0,0,1.5-12.058.474.474,0,0,1,.821-.473A11.067,11.067,0,0,1,747.509,1084,.472.472,0,0,1,747.168,1084.145Z" transform="translate(-746.695 -1070.575)"/>
            </g>
            <g id="Group_8363" data-name="Group 8363" transform="translate(30.492 93.436)">
              <path id="Path_1547" data-name="Path 1547" d="M657.169,1396.2a.474.474,0,0,1-.393-.208l-14.93-22.055a.474.474,0,1,1,.784-.531l14.93,22.055a.474.474,0,0,1-.392.739Z" transform="translate(-641.765 -1373.197)"/>
            </g>
            <g id="Group_8364" data-name="Group 8364" transform="translate(32.81 110.713)">
              <path id="Path_1548" data-name="Path 1548" d="M658.216,1467.359a.474.474,0,0,1-.426-.265l-4.78-9.743a.474.474,0,0,1,.851-.417l4.78,9.743a.474.474,0,0,1-.217.634A.469.469,0,0,1,658.216,1467.359Z" transform="translate(-652.962 -1456.668)"/>
            </g>
            <g id="Group_8365" data-name="Group 8365" transform="translate(5.309 31.725)">
              <path id="Path_1549" data-name="Path 1549" d="M520.095,1076.246c1.429,14.275,2.647,29.426,6.158,35.053,12.375,4.507,27.863,9.234,53.526,14.684l8.526-10.421c.477-1.627-2.589-3.784-7.105-6.158l-7.105-.947c-13.882-7.594-32.9-13.8-33.158-16.579l-3.316-9.947C530.492,1075.882,524.454,1073.356,520.095,1076.246Z" transform="translate(-520.095 -1075.051)"/>
            </g>
            <g id="Group_8366" data-name="Group 8366" transform="translate(42.256 14.921)">
              <path id="Path_1550" data-name="Path 1550" d="M703.149,995.926l13.451,49.332-4.026.237L698.6,993.863Z" transform="translate(-698.6 -993.863)"/>
            </g>
            <g id="Group_8369" data-name="Group 8369" transform="translate(22.361)">
              <g id="Group_8367" data-name="Group 8367" transform="translate(0.474 0.474)">
                <path id="Path_1551" data-name="Path 1551" d="M609.981,924.29c1.184,1.133,20.431,6.634,24.75-.227-.939,7.8-3.681,15.169-1.065,19.488-4.263,5.064-28.579.959-28.895-5.212C608.6,934.659,609.974,929.8,609.981,924.29Z" transform="translate(-604.771 -924.063)" fill="#fff"/>
              </g>
              <g id="Group_8368" data-name="Group 8368">
                <path id="Path_1552" data-name="Path 1552" d="M623.319,944.467a45.562,45.562,0,0,1-13.451-2.145c-4.652-1.563-7.275-3.615-7.386-5.774a.475.475,0,0,1,.145-.366c3.4-3.265,5.057-7.749,5.065-13.708a.473.473,0,0,1,.287-.431.481.481,0,0,1,.514.089c.746.689,10.9,3.8,18.1,2.849,2.928-.387,4.921-1.392,5.925-2.986a.474.474,0,0,1,.871.309c-.267,2.221-.676,4.387-1.071,6.483-.988,5.237-1.841,9.76-.059,12.7a.473.473,0,0,1-.043.55C630.751,943.777,627.3,944.467,623.319,944.467ZM603.45,936.7c.263,1.656,2.689,3.366,6.72,4.721,7.331,2.464,18.131,3.066,21.1.242-1.734-3.238-.874-7.8.118-13.055.3-1.579.6-3.2.849-4.844a10.381,10.381,0,0,1-5.68,2.175c-6.437.794-15.177-1.486-17.923-2.684C608.482,929.006,606.783,933.414,603.45,936.7Z" transform="translate(-602.482 -921.774)"/>
              </g>
            </g>
          </g>
        </g>
      </g>
    </g>
  </g>
</svg>
